<svg width="371" height="289" viewBox="0 0 371 289" fill="none" xmlns="http://www.w3.org/2000/svg">
<path d="M238.794 273.539H105.133V282.531H238.794V273.539Z" fill="#B6BAD1"/>
<path d="M253.382 273.936C253.382 275.682 251.766 277.11 249.791 277.11H94.3682C92.3932 277.11 90.7773 275.682 90.7773 273.936V182.299C90.7773 180.553 92.3932 179.125 94.3682 179.125H249.791C251.766 179.125 253.382 180.553 253.382 182.299V273.936Z" fill="#E3E3E3"/>
<path d="M253.382 285.702C253.382 287.447 251.766 288.875 249.791 288.875H94.3682C92.3932 288.875 90.7773 287.447 90.7773 285.702V284.572C90.7773 282.827 92.3932 281.398 94.3682 281.398H249.791C251.766 281.398 253.382 282.827 253.382 284.572V285.702Z" fill="#E3E3E3"/>
<path d="M248.963 258.538C248.963 260.024 247.589 261.24 245.905 261.24H98.2473C96.5667 261.24 95.1914 260.025 95.1914 258.538V185.25C95.1914 183.763 96.5655 182.547 98.2473 182.547H245.905C247.588 182.547 248.963 183.762 248.963 185.25V258.538Z" fill="#B6BAD1"/>
<path d="M223.729 203.719H118.996V261.241H223.729V203.719Z" fill="white"/>
<path d="M215.052 209.891H125.68V221.896H215.052V209.891Z" fill="#051A41"/>
<path d="M151.016 235.406H125.68V256.968H151.016V235.406Z" fill="#0FCC7C"/>
<path d="M215.052 225.562H125.68V228.929H215.052V225.562Z" fill="#E3E3E3"/>
<path d="M215.052 235.406H156.402V239.394H215.052V235.406Z" fill="#0FCC7C"/>
<path d="M215.052 244.188H156.402V248.176H215.052V244.188Z" fill="#E3E3E3"/>
<path d="M215.052 252.977H156.402V256.965H215.052V252.977Z" fill="#E3E3E3"/>
<path d="M370.3 79.5312H280.051V129.097H370.3V79.5312Z" fill="#E3E3E3"/>
<path d="M370.3 75.6016H280.051V79.5326H370.3V75.6016Z" fill="#B6BAD1"/>
<path d="M297.906 93.8281H307.629L302.769 91.2098L297.906 88.5938L293.041 91.2098L288.176 93.8281H297.906Z" fill="#0FCC7C"/>
<path d="M319.671 93.8263H334.292L326.983 89.3272L319.671 84.8281L312.358 89.3272L305.043 93.8263H319.671Z" fill="#0FCC7C"/>
<path d="M343.378 93.8287H363.735L353.556 91.8357L343.378 89.8438L333.197 91.8357L323.016 93.8287H343.378Z" fill="#0FCC7C"/>
<path d="M288.747 111.266H286.426V121.975H288.747V111.266Z" fill="#B6BAD1"/>
<path d="M292.938 116.617H290.617V121.973H292.938V116.617Z" fill="#B6BAD1"/>
<path d="M297.122 108.414H294.801V121.973H297.122V108.414Z" fill="#B6BAD1"/>
<path d="M350.898 110.961H347.391V121.672H350.898V110.961Z" fill="#B6BAD1"/>
<path d="M357.22 116.312H353.715V121.668H357.22V116.312Z" fill="#B6BAD1"/>
<path d="M363.542 108.109H360.035V121.669H363.542V108.109Z" fill="#B6BAD1"/>
<path d="M301.313 106.289H298.992V121.975H301.313V106.289Z" fill="#B6BAD1"/>
<path d="M340.792 106.289H312.598V121.975H340.792V106.289Z" fill="#051A41"/>
<path d="M312.598 121.977L318.787 115.939L324.288 119.3L332.883 110.242L340.791 121.977H312.598Z" fill="white"/>
<path d="M97.0501 83.5518V190.61C97.0501 192.947 94.9063 194.841 92.2622 194.841H7.28005C4.63595 194.841 2.49219 192.947 2.49219 190.61V83.5518C2.49219 81.2149 4.63595 79.3203 7.28005 79.3203H92.2622C94.9063 79.3203 97.0501 81.2149 97.0501 83.5518Z" fill="#E3E3E3"/>
<path d="M67.4184 97.0085H32.1283C24.9632 97.0085 19.1328 91.8567 19.1328 85.5232C19.1328 79.1909 24.9632 74.0391 32.1283 74.0391H67.4172C74.5822 74.0391 80.4103 79.1909 80.4103 85.5232C80.4115 91.8567 74.5834 97.0085 67.4184 97.0085ZM32.1283 80.3863C28.9228 80.3863 26.3146 82.6913 26.3146 85.5232C26.3146 88.3562 28.924 90.6613 32.1283 90.6613H67.4172C70.6227 90.6613 73.2285 88.3562 73.2285 85.5232C73.2285 82.6903 70.6215 80.3863 67.4172 80.3863H32.1283Z" fill="#E3E3E3"/>
<path d="M87.773 86.7891H11.7656V185.524H87.773V86.7891Z" fill="white"/>
<path d="M77.1036 103.711H40.2969V105.65H77.1036V103.711Z" fill="#B6BAD1"/>
<path d="M77.1036 116.672H40.2969V118.611H77.1036V116.672Z" fill="#B6BAD1"/>
<path d="M77.1036 129.625H40.2969V131.564H77.1036V129.625Z" fill="#B6BAD1"/>
<path d="M77.1036 142.586H40.2969V144.525H77.1036V142.586Z" fill="#B6BAD1"/>
<path d="M77.1036 155.547H40.2969V157.486H77.1036V155.547Z" fill="#B6BAD1"/>
<path d="M77.1036 168.508H40.2969V170.447H77.1036V168.508Z" fill="#B6BAD1"/>
<path d="M69.2217 86.7878C69.2217 88.8824 67.3006 90.5834 64.927 90.5834H34.615C32.245 90.5834 30.3203 88.8834 30.3203 86.7878C30.3203 84.6911 32.2438 82.9922 34.615 82.9922H64.927C67.3006 82.9922 69.2217 84.6901 69.2217 86.7878Z" fill="#B6BAD1"/>
<path d="M35.9909 103.711H19.1328V118.609H35.9909V103.711Z" fill="#B6BAD1"/>
<path d="M35.9909 129.625H19.1328V144.523H35.9909V129.625Z" fill="#B6BAD1"/>
<path d="M35.9909 155.547H19.1328V170.445H35.9909V155.547Z" fill="#B6BAD1"/>
<path d="M22.2345 109.83L20.4766 111.805L27.0089 116.348L28.7668 114.374L22.2345 109.83Z" fill="#0FCC7C"/>
<path d="M32.3456 105.951L24.8047 114.828L27.079 116.337L34.6199 107.46L32.3456 105.951Z" fill="#0FCC7C"/>
<path d="M22.2345 135.752L20.4766 137.727L27.0089 142.27L28.7668 140.296L22.2345 135.752Z" fill="#0FCC7C"/>
<path d="M32.3456 131.873L24.8047 140.75L27.079 142.259L34.6199 133.382L32.3456 131.873Z" fill="#0FCC7C"/>
<path d="M30.7743 158.064L22.2734 166.234L24.3651 167.934L32.866 159.764L30.7743 158.064Z" fill="#0FCC7C"/>
<path d="M23.912 158.33L21.9883 160.18L31.2351 167.69L33.1589 165.841L23.912 158.33Z" fill="#0FCC7C"/>
<path d="M248.211 22.7266H207.121V32.899H248.211V22.7266Z" fill="#0FCC7C"/>
<path d="M212.489 22.7266H210.301V32.899H212.489V22.7266Z" fill="#0FCC7C"/>
<path d="M217.848 22.7266H215.66V32.899H217.848V22.7266Z" fill="#0FCC7C"/>
<path d="M223.211 22.7266H221.023V32.899H223.211V22.7266Z" fill="#0FCC7C"/>
<path d="M228.571 22.7266H226.383V32.899H228.571V22.7266Z" fill="#0FCC7C"/>
<path d="M233.93 22.7266H231.742V32.899H233.93V22.7266Z" fill="#0FCC7C"/>
<path d="M239.294 22.7266H237.105V32.899H239.294V22.7266Z" fill="#0FCC7C"/>
<path d="M244.653 22.7266H242.465V32.899H244.653V22.7266Z" fill="#0FCC7C"/>
<path d="M258.742 12.5547H217.652V22.7271H258.742V12.5547Z" fill="#0FCC7C"/>
<path d="M223.02 12.5547H220.832V22.7271H223.02V12.5547Z" fill="#0FCC7C"/>
<path d="M228.383 12.5547H226.195V22.7271H228.383V12.5547Z" fill="#0FCC7C"/>
<path d="M233.743 12.5547H231.555V22.7271H233.743V12.5547Z" fill="#0FCC7C"/>
<path d="M239.106 12.5547H236.918V22.7271H239.106V12.5547Z" fill="#0FCC7C"/>
<path d="M244.465 12.5547H242.277V22.7271H244.465V12.5547Z" fill="#0FCC7C"/>
<path d="M249.825 12.5547H247.637V22.7271H249.825V12.5547Z" fill="#0FCC7C"/>
<path d="M255.188 12.5547H253V22.7271H255.188V12.5547Z" fill="#0FCC7C"/>
<path d="M370.688 169.974C370.688 180.198 361.311 188.486 349.741 188.486H315.873C304.303 188.486 294.926 180.198 294.926 169.974C294.926 159.749 304.303 151.461 315.873 151.461H349.741C361.311 151.461 370.688 159.749 370.688 169.974Z" fill="#B6BAD1"/>
<path d="M325.649 169.907C325.649 171.32 324.354 172.464 322.755 172.464C321.158 172.464 319.863 171.32 319.863 169.907C319.863 168.496 321.158 167.352 322.755 167.352C324.354 167.352 325.649 168.496 325.649 169.907Z" fill="#DEE3FF"/>
<path d="M335.674 169.946C335.674 171.359 334.379 172.503 332.783 172.503C331.186 172.503 329.891 171.359 329.891 169.946C329.891 168.535 331.186 167.391 332.783 167.391C334.379 167.391 335.674 168.535 335.674 169.946Z" fill="#DEE3FF"/>
<path d="M345.751 169.946C345.751 171.359 344.456 172.503 342.857 172.503C341.26 172.503 339.965 171.359 339.965 169.946C339.965 168.535 341.26 167.391 342.857 167.391C344.456 167.391 345.751 168.535 345.751 169.946Z" fill="#DEE3FF"/>
<path d="M332.784 186.984H336.8L334.792 190.061L332.784 193.136L330.775 190.061L328.766 186.984H332.784Z" fill="#B6BAD1"/>
<path d="M114.022 232.477C114.022 243.823 103.617 253.019 90.7817 253.019C77.9443 253.019 67.5391 243.823 67.5391 232.477C67.5391 221.134 77.9443 211.938 90.7817 211.938C103.617 211.937 114.022 221.135 114.022 232.477Z" fill="#0FCC7C"/>
<path d="M90.7813 247.729C81.2666 247.729 73.5234 240.886 73.5234 232.477C73.5234 224.068 81.2666 217.227 90.7813 217.227C100.296 217.227 108.037 224.068 108.037 232.477C108.037 240.887 100.296 247.729 90.7813 247.729Z" fill="#0FCC7C"/>
<path d="M89.8995 240.226V222.968H91.0051V240.226H89.8995ZM93.6207 228.145C93.5398 227.462 93.2117 226.932 92.6365 226.554C92.0612 226.177 91.3556 225.988 90.5197 225.988C89.9084 225.988 89.3736 226.087 88.9152 226.285C88.4613 226.482 88.1062 226.754 87.8501 227.1C87.5984 227.446 87.4725 227.84 87.4725 228.28C87.4725 228.649 87.5602 228.965 87.7355 229.231C87.9152 229.491 88.1444 229.709 88.4231 229.884C88.7017 230.055 88.9939 230.197 89.2995 230.309C89.6051 230.417 89.886 230.505 90.1421 230.572L91.5444 230.95C91.9039 231.044 92.3039 231.174 92.7443 231.341C93.1893 231.507 93.614 231.734 94.0185 232.021C94.4275 232.305 94.7645 232.669 95.0297 233.114C95.2949 233.559 95.4274 234.105 95.4274 234.752C95.4274 235.498 95.2319 236.172 94.8409 236.774C94.4544 237.376 93.8881 237.855 93.1421 238.21C92.4005 238.565 91.4994 238.743 90.4388 238.743C89.45 238.743 88.5939 238.583 87.8703 238.264C87.1512 237.945 86.5849 237.5 86.1714 236.929C85.7625 236.358 85.531 235.696 85.4771 234.941H87.2029C87.2478 235.462 87.4231 235.893 87.7287 236.235C88.0388 236.572 88.4298 236.824 88.9017 236.99C89.3781 237.152 89.8905 237.233 90.4388 237.233C91.077 237.233 91.65 237.129 92.1578 236.923C92.6657 236.711 93.0679 236.419 93.3646 236.046C93.6612 235.669 93.8095 235.228 93.8095 234.725C93.8095 234.266 93.6814 233.893 93.4252 233.606C93.1691 233.318 92.832 233.084 92.414 232.905C91.996 232.725 91.5444 232.568 91.059 232.433L89.3601 231.947C88.2815 231.637 87.4276 231.195 86.7984 230.619C86.1692 230.044 85.8546 229.291 85.8546 228.361C85.8546 227.588 86.0636 226.914 86.4815 226.338C86.904 225.759 87.4703 225.309 88.1804 224.99C88.895 224.667 89.6927 224.505 90.5736 224.505C91.4635 224.505 92.2545 224.664 92.9466 224.983C93.6387 225.298 94.187 225.729 94.5915 226.278C95.0005 226.826 95.2162 227.449 95.2387 228.145H93.6207Z" fill="#0FCC7C"/>
<path d="M105.015 31.4542C103.909 31.4542 102.845 31.6023 101.84 31.8732C102.451 29.8198 102.809 27.6755 102.809 25.4519C102.809 11.5368 90.0459 0.257812 74.3034 0.257812C58.8363 0.257812 46.2765 11.1506 45.8384 24.7262C44.906 24.5622 43.9424 24.4734 42.9561 24.4734C34.7785 24.4734 28.1484 30.3329 28.1484 37.5592C28.1484 44.7865 34.7784 50.645 42.9549 50.645H105.016C111.013 50.645 115.873 46.349 115.873 41.0491C115.872 35.7502 111.012 31.4542 105.015 31.4542Z" fill="#B6BAD1"/>
<path d="M68.1911 39.4167L64.9784 34.5018L61.7694 29.5859L58.5567 34.5018L55.3477 39.4167H58.9924V50.4259H64.5439V39.4167H68.1911Z" fill="#0FCC7C"/>
<path d="M87.5595 28.4021L84.348 23.4862L81.1378 18.5703L77.9251 23.4862L74.7148 28.4021H78.3608V50.4195H83.9135V28.4021H87.5595Z" fill="#0FCC7C"/>
<path d="M236.817 198.631C238.454 197.185 241.105 197.185 242.741 198.631C244.377 200.078 244.377 202.422 242.741 203.867L235.405 210.35C233.771 211.797 231.117 211.797 229.481 210.35C227.845 208.904 227.845 206.56 229.481 205.115L236.817 198.631Z" fill="#051A41"/>
<path d="M287.471 198.631C285.835 197.185 283.181 197.185 281.548 198.631C279.911 200.078 279.911 202.422 281.548 203.867L288.881 210.35C290.518 211.797 293.171 211.797 294.807 210.35C296.444 208.904 296.444 206.56 294.807 205.115L287.471 198.631Z" fill="#051A41"/>
<path d="M261.789 212.355C287.736 212.355 308.77 193.765 308.77 170.834C308.77 147.902 287.736 129.312 261.789 129.312C235.843 129.312 214.809 147.902 214.809 170.834C214.809 193.765 235.843 212.355 261.789 212.355Z" fill="#0FCC7C"/>
<path d="M278.804 203.788C299.392 195.463 308.447 173.965 299.028 155.769C289.609 137.574 265.284 129.572 244.696 137.896C224.108 146.221 215.053 167.719 224.472 185.914C233.891 204.11 258.216 212.112 278.804 203.788Z" fill="white"/>
<path d="M276.195 199.03C293.821 192.005 301.667 173.681 293.718 158.102C285.769 142.524 265.035 135.59 247.408 142.615C229.782 149.641 221.936 167.965 229.885 183.543C237.834 199.122 258.568 206.055 276.195 199.03Z" fill="#0FCC7C"/>
<path d="M261.792 196.486C277.823 196.486 290.818 185.001 290.818 170.833C290.818 156.665 277.823 145.18 261.792 145.18C245.761 145.18 232.766 156.665 232.766 170.833C232.766 185.001 245.761 196.486 261.792 196.486Z" fill="white"/>
<path d="M261.792 191.197C274.517 191.197 284.833 182.079 284.833 170.833C284.833 159.586 274.517 150.469 261.792 150.469C249.066 150.469 238.75 159.586 238.75 170.833C238.75 182.079 249.066 191.197 261.792 191.197Z" fill="#0FCC7C"/>
<path d="M261.791 185.907C271.211 185.907 278.848 179.158 278.848 170.832C278.848 162.507 271.211 155.758 261.791 155.758C252.371 155.758 244.734 162.507 244.734 170.832C244.734 179.158 252.371 185.907 261.791 185.907Z" fill="white"/>
<path d="M261.791 180.617C267.906 180.617 272.863 176.236 272.863 170.832C272.863 165.428 267.906 161.047 261.791 161.047C255.676 161.047 250.719 165.428 250.719 170.832C250.719 176.236 255.676 180.617 261.791 180.617Z" fill="#0FCC7C"/>
<path d="M307.048 128.594L260.516 169.719L263.055 171.963L309.587 130.838L307.048 128.594Z" fill="#051A41"/>
<path d="M297.776 139.047L293.109 130.854L306.384 119.273L311.051 127.466L297.776 139.047Z" fill="#051A41"/>
<path d="M306.661 142.541L297.691 138.737L310.965 127.156L319.936 130.96L306.661 142.541Z" fill="#051A41"/>
<path d="M264.074 170.601C264.074 171.541 263.211 172.303 262.149 172.303C261.084 172.303 260.223 171.54 260.223 170.601C260.223 169.661 261.086 168.898 262.149 168.898C263.211 168.898 264.074 169.661 264.074 170.601Z" fill="#051A41"/>
<path d="M38.2737 211.644L28.2891 220.469L33.8802 225.41L43.8649 216.586L38.2737 211.644Z" fill="#C1B3C7"/>
<path d="M43.8703 216.582L41.1496 218.986C40.0759 218.338 39.0573 217.579 38.1081 216.741C37.1506 215.895 36.2995 215 35.5586 214.045L38.2793 211.641L43.8703 216.582Z" fill="#C1B3C7"/>
<path d="M9.73077 249C7.508 250.964 3.90275 250.962 1.67879 248.998C-0.543972 247.033 -0.543972 243.848 1.67879 241.881L26.6535 219.81C28.8762 217.845 32.4827 217.845 34.7055 219.809C36.9294 221.774 36.9282 224.961 34.7043 226.926L9.73077 249Z" fill="#051A41"/>
<path d="M70.7263 197.696L54.9371 211.649L43.9346 201.925L59.7214 187.973C52.9215 185.684 44.9413 186.947 39.464 191.788C32.0224 198.364 32.0224 209.024 39.464 215.601C46.9031 222.176 58.9661 222.176 66.4065 215.6C71.8862 210.758 73.3142 203.706 70.7263 197.696Z" fill="#051A41"/>
<path d="M140.007 169.512C140.007 174.79 138.386 179.734 135.553 183.984C134.827 185.087 134.017 186.138 133.14 187.139C127.2 193.84 117.963 198.157 107.604 198.157C97.2455 198.157 88.0061 193.84 82.0584 187.139C81.1822 186.139 80.373 185.087 79.6453 183.984C76.8121 179.735 75.1914 174.791 75.1914 169.512C75.1914 163.86 77.0574 158.59 80.2593 154.146C81.029 153.088 81.8729 152.074 82.7909 151.112C88.7315 144.857 97.6477 140.875 107.603 140.875C117.548 140.875 126.465 144.857 132.405 151.112C133.324 152.074 134.168 153.088 134.934 154.146C138.143 158.59 140.007 163.86 140.007 169.512Z" fill="#051A41"/>
<path d="M107.6 194.437C123.169 194.437 135.79 183.283 135.79 169.523C135.79 155.764 123.169 144.609 107.6 144.609C92.0311 144.609 79.4102 155.764 79.4102 169.523C79.4102 183.283 92.0311 194.437 107.6 194.437Z" fill="#DEE3FF"/>
<path d="M107.671 197.912C98.2124 197.912 90.8008 185.369 90.8008 169.354C90.8008 153.341 98.2112 140.797 107.671 140.797C117.132 140.797 124.543 153.341 124.543 169.354C124.542 185.368 117.132 197.912 107.671 197.912ZM107.671 144.525C101.688 144.525 95.0189 154.722 95.0189 169.354C95.0189 183.986 101.688 194.184 107.671 194.184C113.658 194.184 120.325 183.986 120.325 169.354C120.325 154.722 113.657 144.525 107.671 144.525Z" fill="#051A41"/>
<path d="M132.408 151.117C127.851 154.539 118.893 157.283 107.605 157.283C96.3082 157.283 87.3501 154.539 82.7933 151.117C81.874 152.079 81.0302 153.093 80.2617 154.151C85.9401 158.304 95.9623 161.01 107.605 161.01C119.248 161.01 129.261 158.303 134.937 154.151C134.169 153.094 133.326 152.08 132.408 151.117Z" fill="#051A41"/>
<path d="M107.606 176.664C95.5238 176.664 85.1904 179.571 79.6484 183.986C80.375 185.089 81.1841 186.139 82.0615 187.14C86.349 183.449 95.6698 180.392 107.607 180.392C119.535 180.392 128.856 183.449 133.143 187.14C134.019 186.14 134.829 185.089 135.556 183.986C130.012 179.571 119.679 176.664 107.606 176.664Z" fill="#051A41"/>
<path d="M297.882 227.117C297.948 227.545 297.595 227.898 297.104 227.898H289.188C288.695 227.898 288.344 227.545 288.41 227.117L289.968 216.675C290.033 216.244 290.488 215.891 290.983 215.891H295.312C295.805 215.891 296.261 216.244 296.327 216.675L297.882 227.117Z" fill="#B6BAD1"/>
<path d="M284.292 228.594C284.684 228.86 284.719 229.328 284.371 229.636L278.774 234.583C278.425 234.891 277.895 234.86 277.594 234.514L270.344 226.157C270.042 225.813 270.081 225.279 270.43 224.97L273.493 222.263C273.841 221.956 274.447 221.921 274.837 222.185L284.292 228.594Z" fill="#B6BAD1"/>
<path d="M275.865 238.132C276.353 238.075 276.753 238.385 276.753 238.82V245.814C276.753 246.25 276.353 246.56 275.865 246.503L264.052 245.126C263.564 245.068 263.164 244.665 263.164 244.23V240.402C263.164 239.967 263.564 239.563 264.05 239.506L275.865 238.132Z" fill="#B6BAD1"/>
<path d="M277.536 250.141C277.835 249.794 278.365 249.763 278.713 250.072L284.313 255.02C284.659 255.328 284.624 255.794 284.234 256.061L274.78 262.471C274.39 262.735 273.782 262.701 273.436 262.393L270.373 259.685C270.025 259.377 269.983 258.843 270.282 258.498L277.536 250.141Z" fill="#B6BAD1"/>
<path d="M288.328 257.59C288.262 257.159 288.615 256.806 289.106 256.806L297.022 256.805C297.515 256.805 297.866 257.159 297.8 257.59L296.243 268.033C296.177 268.462 295.722 268.816 295.23 268.816L290.898 268.817C290.405 268.817 289.949 268.462 289.883 268.033L288.328 257.59Z" fill="#B6BAD1"/>
<path d="M301.92 256.116C301.527 255.851 301.495 255.382 301.841 255.074L307.442 250.127C307.786 249.82 308.316 249.847 308.618 250.194L315.87 258.551C316.172 258.896 316.13 259.431 315.784 259.738L312.721 262.445C312.373 262.753 311.767 262.787 311.374 262.524L301.92 256.116Z" fill="#B6BAD1"/>
<path d="M310.345 246.574C309.857 246.631 309.457 246.321 309.457 245.887V238.891C309.457 238.455 309.857 238.144 310.345 238.202L322.16 239.58C322.646 239.638 323.046 240.039 323.046 240.476V244.304C323.046 244.739 322.646 245.14 322.16 245.198L310.345 246.574Z" fill="#B6BAD1"/>
<path d="M308.675 234.564C308.376 234.91 307.846 234.94 307.497 234.633L301.9 229.685C301.552 229.377 301.587 228.908 301.978 228.644L311.434 222.232C311.824 221.967 312.428 222.004 312.778 222.312L315.841 225.017C316.187 225.325 316.227 225.861 315.928 226.207L308.675 234.564Z" fill="#B6BAD1"/>
<path d="M293.152 220.008C279.191 220.008 267.859 230.011 267.859 242.352C267.859 254.693 279.191 264.696 293.152 264.696C307.116 264.696 318.431 254.693 318.431 242.352C318.431 230.011 307.116 220.008 293.152 220.008ZM293.152 252.275C286.955 252.275 281.924 247.821 281.924 242.352C281.924 236.883 286.955 232.429 293.152 232.429C299.341 232.429 304.381 236.883 304.381 242.352C304.38 247.821 299.34 252.275 293.152 252.275Z" fill="#DEE3FF"/>
<path d="M293.154 228.016C284.211 228.016 276.934 234.446 276.934 242.351C276.934 250.254 284.211 256.686 293.154 256.686C302.096 256.686 309.369 250.254 309.369 242.351C309.368 234.446 302.095 228.016 293.154 228.016ZM293.154 252.272C286.956 252.272 281.925 247.819 281.925 242.35C281.925 236.881 286.956 232.427 293.154 232.427C299.342 232.427 304.382 236.881 304.382 242.35C304.381 247.819 299.341 252.272 293.154 252.272Z" fill="#B6BAD1"/>
<g opacity="0.5">
<path d="M310.247 229.953C309.632 230.486 308.648 230.477 308.045 229.934C300.108 222.784 287.07 222.674 278.981 229.686C278.366 230.222 277.38 230.214 276.776 229.667C276.168 229.125 276.183 228.252 276.797 227.719C286.113 219.641 301.129 219.768 310.27 228.002C310.873 228.547 310.863 229.418 310.247 229.953Z" fill="white"/>
</g>
<path d="M293.432 222.142C294.058 222.71 294.05 223.618 293.409 224.177C292.768 224.735 291.736 224.722 291.108 224.157C290.477 223.59 290.486 222.679 291.13 222.122C291.772 221.568 292.804 221.574 293.432 222.142Z" fill="white"/>
<path d="M297.396 223.37C297.756 223.697 297.749 224.215 297.379 224.535C297.016 224.852 296.425 224.847 296.067 224.523C295.707 224.199 295.714 223.679 296.077 223.36C296.447 223.043 297.034 223.047 297.396 223.37Z" fill="white"/>
<path d="M192.474 138.34C192.522 138.654 192.265 138.912 191.905 138.912H186.118C185.757 138.912 185.501 138.654 185.549 138.34L186.687 130.706C186.735 130.391 187.068 130.133 187.428 130.133H190.594C190.955 130.133 191.288 130.391 191.335 130.706L192.474 138.34Z" fill="#B6BAD1"/>
<path d="M182.541 139.415C182.827 139.61 182.854 139.952 182.599 140.178L178.507 143.794C178.252 144.019 177.865 143.996 177.644 143.744L172.343 137.635C172.123 137.383 172.153 136.993 172.408 136.767L174.646 134.788C174.901 134.564 175.343 134.538 175.629 134.731L182.541 139.415Z" fill="#B6BAD1"/>
<path d="M176.376 146.388C176.734 146.346 177.026 146.573 177.026 146.892V152.005C177.026 152.324 176.734 152.551 176.376 152.51L167.74 151.503C167.382 151.461 167.09 151.166 167.09 150.849V148.05C167.09 147.731 167.382 147.436 167.739 147.395L176.376 146.388Z" fill="#B6BAD1"/>
<path d="M177.596 155.175C177.815 154.922 178.204 154.898 178.458 155.124L182.551 158.741C182.805 158.966 182.779 159.308 182.494 159.502L175.581 164.189C175.297 164.382 174.854 164.357 174.6 164.131L172.36 162.152C172.105 161.927 172.077 161.537 172.295 161.285L177.596 155.175Z" fill="#B6BAD1"/>
<path d="M185.486 160.613C185.438 160.298 185.696 160.04 186.056 160.04L191.843 160.039C192.204 160.039 192.46 160.298 192.412 160.613L191.274 168.248C191.227 168.562 190.894 168.82 190.534 168.82L187.367 168.821C187.006 168.821 186.674 168.562 186.626 168.248L185.486 160.613Z" fill="#B6BAD1"/>
<path d="M195.42 159.535C195.134 159.34 195.109 158.997 195.362 158.772L199.457 155.155C199.71 154.931 200.098 154.952 200.318 155.205L205.62 161.315C205.841 161.567 205.81 161.957 205.557 162.182L203.317 164.162C203.062 164.387 202.621 164.411 202.334 164.219L195.42 159.535Z" fill="#B6BAD1"/>
<path d="M201.584 152.564C201.226 152.606 200.934 152.379 200.934 152.061V146.946C200.934 146.628 201.226 146.4 201.584 146.443L210.222 147.449C210.578 147.491 210.87 147.784 210.87 148.103V150.901C210.87 151.22 210.578 151.513 210.222 151.555L201.584 152.564Z" fill="#B6BAD1"/>
<path d="M200.36 143.786C200.142 144.039 199.755 144.062 199.5 143.837L195.406 140.22C195.151 139.994 195.177 139.652 195.462 139.458L202.377 134.771C202.662 134.576 203.104 134.604 203.359 134.829L205.598 136.806C205.851 137.032 205.881 137.423 205.662 137.676L200.36 143.786Z" fill="#B6BAD1"/>
<path d="M189.017 133.141C178.81 133.141 170.527 140.454 170.527 149.475C170.527 158.497 178.81 165.81 189.017 165.81C199.225 165.81 207.498 158.497 207.498 149.475C207.499 140.454 199.226 133.141 189.017 133.141ZM189.017 156.73C184.486 156.73 180.808 153.474 180.808 149.476C180.808 145.478 184.486 142.222 189.017 142.222C193.54 142.222 197.224 145.478 197.224 149.476C197.224 153.474 193.541 156.73 189.017 156.73Z" fill="#DEE3FF"/>
<path d="M189.013 139C182.476 139 177.156 143.701 177.156 149.479C177.156 155.257 182.476 159.958 189.013 159.958C195.551 159.958 200.869 155.257 200.869 149.479C200.871 143.702 195.551 139 189.013 139ZM189.013 156.734C184.483 156.734 180.805 153.478 180.805 149.48C180.805 145.483 184.483 142.227 189.013 142.227C193.537 142.227 197.221 145.483 197.221 149.48C197.221 153.478 193.538 156.734 189.013 156.734Z" fill="#B6BAD1"/>
<g opacity="0.5">
<path d="M200.365 140.552C199.941 140.919 199.263 140.913 198.849 140.54C193.392 135.624 184.426 135.546 178.864 140.369C178.44 140.738 177.762 140.732 177.347 140.355C176.929 139.983 176.939 139.382 177.361 139.015C183.769 133.461 194.094 133.548 200.378 139.212C200.794 139.585 200.788 140.185 200.365 140.552Z" fill="white"/>
</g>
<path d="M188.798 135.179C189.23 135.569 189.222 136.194 188.781 136.578C188.342 136.961 187.633 136.952 187.201 136.565C186.766 136.174 186.772 135.548 187.215 135.165C187.657 134.784 188.365 134.789 188.798 135.179Z" fill="white"/>
<path d="M191.526 136.02C191.773 136.245 191.768 136.602 191.514 136.821C191.265 137.04 190.858 137.035 190.613 136.813C190.365 136.591 190.37 136.232 190.619 136.013C190.873 135.796 191.277 135.798 191.526 136.02Z" fill="white"/>
<path d="M136.282 54.7242C135.856 51.1321 134.131 48.3436 131.106 46.3585C128.081 44.3734 124.371 43.3809 119.976 43.3809C116.762 43.3809 113.949 43.9008 111.539 44.9406C109.152 45.9804 107.285 47.4101 105.938 49.2298C104.615 51.0494 103.953 53.1172 103.953 55.4331C103.953 57.3709 104.414 59.037 105.336 60.4312C106.281 61.8019 107.486 62.948 108.951 63.8697C110.417 64.7677 111.953 65.5121 113.56 66.1029C115.167 66.67 116.644 67.1309 117.991 67.4853L125.364 69.4704C127.254 69.9667 129.357 70.652 131.673 71.5264C134.013 72.4008 136.246 73.5942 138.373 75.1066C140.523 76.5954 142.296 78.5096 143.69 80.8491C145.084 83.1887 145.782 86.06 145.782 89.4629C145.782 93.3858 144.754 96.9306 142.698 100.097C140.665 103.264 137.688 105.781 133.765 107.648C129.866 109.515 125.127 110.448 119.55 110.448C114.351 110.448 109.849 109.609 106.045 107.931C102.264 106.253 99.2859 103.914 97.1118 100.913C94.9613 97.9113 93.7443 94.4256 93.4607 90.4555H102.535C102.772 93.1968 103.693 95.4654 105.3 97.2614C106.931 99.0338 108.987 100.357 111.468 101.232C113.973 102.082 116.667 102.508 119.55 102.508C122.906 102.508 125.919 101.964 128.589 100.877C131.26 99.7664 133.375 98.2303 134.935 96.2689C136.494 94.2838 137.274 91.9679 137.274 89.3211C137.274 86.9107 136.601 84.9493 135.254 83.4368C133.907 81.9244 132.134 80.6955 129.936 79.7503C127.739 78.805 125.364 77.9779 122.811 77.2689L113.879 74.7167C108.207 73.0861 103.717 70.7584 100.408 67.7335C97.1 64.7086 95.4458 60.7503 95.4458 55.8585C95.4458 51.7938 96.5447 48.249 98.7424 45.2242C100.964 42.1757 103.941 39.8125 107.675 38.1346C111.433 36.4331 115.627 35.5824 120.259 35.5824C124.938 35.5824 129.097 36.4213 132.737 38.0992C136.376 39.7534 139.259 42.0221 141.386 44.9051C143.537 47.7882 144.671 51.0612 144.789 54.7242H136.282ZM160.235 109.172V36.5749H204.049V44.3734H169.026V68.9033H201.78V76.7018H169.026V101.373H204.616V109.172H160.235ZM281.148 72.8734C281.148 80.5301 279.765 87.147 277 92.7241C274.235 98.3012 270.442 102.602 265.621 105.627C260.801 108.652 255.294 110.164 249.103 110.164C242.911 110.164 237.405 108.652 232.584 105.627C227.763 102.602 223.97 98.3012 221.205 92.7241C218.441 87.147 217.058 80.5301 217.058 72.8734C217.058 65.2167 218.441 58.5998 221.205 53.0227C223.97 47.4456 227.763 43.1446 232.584 40.1197C237.405 37.0948 242.911 35.5824 249.103 35.5824C255.294 35.5824 260.801 37.0948 265.621 40.1197C270.442 43.1446 274.235 47.4456 277 53.0227C279.765 58.5998 281.148 65.2167 281.148 72.8734ZM272.64 72.8734C272.64 66.5873 271.588 61.282 269.485 56.9574C267.406 52.6327 264.582 49.3597 261.013 47.1384C257.468 44.917 253.498 43.8063 249.103 43.8063C244.707 43.8063 240.725 44.917 237.157 47.1384C233.612 49.3597 230.788 52.6327 228.685 56.9574C226.605 61.282 225.566 66.5873 225.566 72.8734C225.566 79.1595 226.605 84.4648 228.685 88.7894C230.788 93.1141 233.612 96.3871 237.157 98.6085C240.725 100.83 244.707 101.941 249.103 101.941C253.498 101.941 257.468 100.83 261.013 98.6085C264.582 96.3871 267.406 93.1141 269.485 88.7894C271.588 84.4648 272.64 79.1595 272.64 72.8734Z" fill="#051A41"/>
</svg>
