<svg width="585" height="346" viewBox="0 0 585 346" fill="none" xmlns="http://www.w3.org/2000/svg">
<path d="M226.415 70.6091L183.188 78.8916L195.962 131.374L239.19 123.091L226.415 70.6091Z" fill="#F5F5F5"/>
<path d="M432.206 49.0312H284.879V134.031H432.206V49.0312Z" fill="#F5F5F5"/>
<path d="M378.033 92.0826C380.605 82.5286 373.96 72.9336 363.191 70.6517C352.423 68.3698 341.608 74.265 339.036 83.819C336.464 93.3731 343.109 102.968 353.877 105.25C364.646 107.532 375.461 101.637 378.033 92.0826Z" fill="#E0E0E0"/>
<path d="M365.28 87.9372L360.044 90.6194L354.809 93.3009V87.9372V82.5742L360.044 85.2557L365.28 87.9372Z" fill="#F5F5F5"/>
<path d="M432.206 118.763H284.879V134.032H432.206V118.763Z" fill="#E0E0E0"/>
<path d="M299.198 126.397L297.074 127.486L294.949 128.574V126.397V124.221L297.074 125.309L299.198 126.397Z" fill="#F5F5F5"/>
<path d="M420.08 126.051H311.406V126.743H420.08V126.051Z" fill="#F5F5F5"/>
<path d="M313.607 126.397C313.607 127.191 312.882 127.835 311.987 127.835C311.093 127.835 310.367 127.191 310.367 126.397C310.367 125.604 311.093 124.96 311.987 124.96C312.882 124.96 313.607 125.604 313.607 126.397Z" fill="#F5F5F5"/>
<path d="M535.716 230.851H393.444C391.08 230.851 389.164 229.15 389.164 227.054V114.048C389.164 111.951 391.08 110.251 393.444 110.251H535.716C538.079 110.251 539.996 111.951 539.996 114.048V227.053C539.996 229.15 538.079 230.851 535.716 230.851Z" fill="#F5F5F5"/>
<path d="M539.996 123.717H389.164V114.686C389.164 112.236 391.403 110.251 394.163 110.251H534.997C537.758 110.251 539.996 112.237 539.996 114.686V123.717Z" fill="#EBEBEB"/>
<path d="M398.369 118.062C399.026 118.062 399.559 117.589 399.559 117.006C399.559 116.424 399.026 115.951 398.369 115.951C397.712 115.951 397.18 116.424 397.18 117.006C397.18 117.589 397.712 118.062 398.369 118.062Z" fill="#FAFAFA"/>
<path d="M406.695 117.006C406.695 117.589 406.163 118.062 405.506 118.062C404.849 118.062 404.316 117.589 404.316 117.006C404.316 116.424 404.849 115.951 405.506 115.951C406.163 115.951 406.695 116.424 406.695 117.006Z" fill="#FAFAFA"/>
<path d="M412.647 118.062C413.303 118.062 413.836 117.589 413.836 117.006C413.836 116.424 413.303 115.951 412.647 115.951C411.99 115.951 411.457 116.424 411.457 117.006C411.457 117.589 411.99 118.062 412.647 118.062Z" fill="#FAFAFA"/>
<path d="M521.857 134.572H464.902V136.401H521.857V134.572Z" fill="#FAFAFA"/>
<path d="M521.857 142.099H464.902V143.928H521.857V142.099Z" fill="#FAFAFA"/>
<path d="M521.857 149.624H464.902V151.453H521.857V149.624Z" fill="#FAFAFA"/>
<path d="M521.857 157.15H464.902V158.979H521.857V157.15Z" fill="#FAFAFA"/>
<path d="M493.38 164.676H464.902V166.505H493.38V164.676Z" fill="#FAFAFA"/>
<path d="M404.409 181.309H461.363V179.48H404.409V181.309Z" fill="#FAFAFA"/>
<path d="M404.409 188.834H461.363V187.005H404.409V188.834Z" fill="#FAFAFA"/>
<path d="M404.409 196.36H461.363V194.531H404.409V196.36Z" fill="#FAFAFA"/>
<path d="M404.409 203.887H461.363V202.058H404.409V203.887Z" fill="#FAFAFA"/>
<path d="M432.886 211.412H461.363V209.583H432.886V211.412Z" fill="#FAFAFA"/>
<path d="M519.94 177.457H471.203V213.435H519.94V177.457Z" fill="#FAFAFA"/>
<path d="M471.121 202.57L485.523 193.616L495.573 199.785L511.378 187.92L519.942 195.445V213.435H471.204L471.121 202.57Z" fill="#EBEBEB"/>
<path d="M496.414 191.542C498.669 191.542 500.497 189.92 500.497 187.92C500.497 185.919 498.669 184.298 496.414 184.298C494.16 184.298 492.332 185.919 492.332 187.92C492.332 189.92 494.16 191.542 496.414 191.542Z" fill="#EBEBEB"/>
<path d="M453.147 133.465H404.41V169.443H453.147V133.465Z" fill="#FAFAFA"/>
<path d="M404.328 158.578L418.73 149.624L428.78 155.793L444.586 143.928L453.149 151.453V169.442H404.412L404.328 158.578Z" fill="#EBEBEB"/>
<path d="M429.621 147.55C431.876 147.55 433.704 145.928 433.704 143.928C433.704 141.927 431.876 140.306 429.621 140.306C427.367 140.306 425.539 141.927 425.539 143.928C425.539 145.928 427.367 147.55 429.621 147.55Z" fill="#EBEBEB"/>
<path d="M223.571 253.654H49.3698C47.3661 253.654 45.7422 252.214 45.7422 250.436V166.456H227.198V250.436C227.199 252.214 225.574 253.654 223.571 253.654Z" fill="#F5F5F5"/>
<path d="M227.198 166.456H45.7422V182.656H227.198V166.456Z" fill="#EBEBEB"/>
<path d="M56.8141 175.853C57.6045 175.853 58.2453 175.285 58.2453 174.583C58.2453 173.882 57.6045 173.313 56.8141 173.313C56.0236 173.313 55.3828 173.882 55.3828 174.583C55.3828 175.285 56.0236 175.853 56.8141 175.853Z" fill="#FAFAFA"/>
<path d="M65.4039 175.853C66.1944 175.853 66.8351 175.285 66.8351 174.583C66.8351 173.882 66.1944 173.313 65.4039 173.313C64.6134 173.313 63.9727 173.882 63.9727 174.583C63.9727 175.285 64.6134 175.853 65.4039 175.853Z" fill="#FAFAFA"/>
<path d="M73.9898 175.853C74.7803 175.853 75.4211 175.285 75.4211 174.583C75.4211 173.882 74.7803 173.313 73.9898 173.313C73.1994 173.313 72.5586 173.882 72.5586 174.583C72.5586 175.285 73.1994 175.853 73.9898 175.853Z" fill="#FAFAFA"/>
<path d="M205.377 195.716H136.859V197.916H205.377V195.716Z" fill="#EBEBEB"/>
<path d="M205.377 204.77H136.859V206.97H205.377V204.77Z" fill="#EBEBEB"/>
<path d="M205.377 213.823H136.859V216.024H205.377V213.823Z" fill="#EBEBEB"/>
<path d="M205.377 222.878H136.859V225.078H205.377V222.878Z" fill="#EBEBEB"/>
<path d="M171.119 231.931H136.859V234.131H171.119V231.931Z" fill="#EBEBEB"/>
<path d="M119.473 194.174H60.8398V237.456H119.473V194.174Z" fill="#FAFAFA"/>
<path d="M60.7383 224.386L78.0646 213.615L90.1549 221.036L109.169 206.762L119.472 215.816V237.457H60.8381L60.7383 224.386Z" fill="#EBEBEB"/>
<path d="M96.0808 206.761C96.0808 209.168 93.882 211.118 91.1693 211.118C88.4565 211.118 86.2578 209.168 86.2578 206.761C86.2578 204.354 88.4565 202.403 91.1693 202.403C93.882 202.404 96.0808 204.355 96.0808 206.761Z" fill="#EBEBEB"/>
<path d="M220.962 80.0837L177.734 88.3662L190.509 140.848L233.737 132.566L220.962 80.0837Z" fill="white"/>
<path d="M233.731 132.56C233.731 132.56 233.702 132.471 233.658 132.304C233.612 132.127 233.549 131.883 233.467 131.565C233.301 130.904 233.06 129.945 232.748 128.702C232.125 126.194 231.22 122.547 230.075 117.932C227.806 108.701 224.586 95.6084 220.776 80.1138L220.994 80.2391C207.978 82.7386 193.28 85.5605 177.777 88.5375L177.772 88.5382L177.928 88.3244C182.686 107.929 187.091 126.081 190.667 140.811L190.47 140.698C203.556 138.224 214.347 136.183 221.881 134.758C225.648 134.052 228.599 133.5 230.623 133.121C231.625 132.936 232.394 132.795 232.928 132.696C233.451 132.603 233.731 132.56 233.731 132.56C233.731 132.56 233.479 132.619 232.97 132.722C232.445 132.826 231.688 132.977 230.703 133.173C228.692 133.567 225.76 134.142 222.015 134.876C214.465 136.342 203.652 138.44 190.54 140.986L190.378 141.017L190.343 140.873C186.747 126.146 182.317 108 177.531 88.3998L177.488 88.2234L177.687 88.1853L177.692 88.1846C193.198 85.2194 207.899 82.4085 220.917 79.9194L221.097 79.8848L221.135 80.0446C224.882 95.5952 228.049 108.736 230.281 118.002C231.381 122.609 232.251 126.249 232.848 128.753C233.138 129.986 233.362 130.937 233.517 131.592C233.588 131.904 233.643 132.145 233.682 132.318C233.72 132.481 233.731 132.56 233.731 132.56Z" fill="#263238"/>
<path d="M206.733 93.8448C206.756 93.9423 202.073 94.9222 196.273 96.0336C190.471 97.1456 185.751 97.9677 185.727 97.8701C185.703 97.7726 190.385 96.7934 196.188 95.6813C201.987 94.57 206.709 93.7472 206.733 93.8448Z" fill="#263238"/>
<path d="M219.203 96.2287C219.227 96.3263 212 97.7934 203.063 99.5061C194.123 101.219 186.859 102.528 186.836 102.431C186.813 102.334 194.037 100.867 202.977 99.1538C211.914 97.4411 219.179 96.1312 219.203 96.2287Z" fill="#263238"/>
<path d="M220.363 100.986C220.387 101.083 213.16 102.55 204.223 104.262C195.283 105.976 188.02 107.285 187.996 107.187C187.973 107.09 195.198 105.623 204.138 103.91C213.074 102.198 220.339 100.888 220.363 100.986Z" fill="#263238"/>
<path d="M221.52 105.743C221.543 105.841 214.317 107.308 205.38 109.021C196.44 110.733 189.176 112.043 189.152 111.946C189.129 111.848 196.354 110.382 205.294 108.668C214.231 106.956 221.496 105.646 221.52 105.743Z" fill="#263238"/>
<path d="M222.68 110.501C222.703 110.599 215.477 112.066 206.54 113.779C197.6 115.491 190.336 116.801 190.313 116.704C190.289 116.606 197.514 115.14 206.454 113.426C215.391 111.714 222.656 110.404 222.68 110.501Z" fill="#263238"/>
<path d="M223.836 115.258C223.859 115.356 216.633 116.823 207.696 118.535C198.756 120.248 191.492 121.557 191.469 121.46C191.445 121.363 198.67 119.896 207.61 118.183C216.547 116.471 223.813 115.161 223.836 115.258Z" fill="#263238"/>
<path d="M224.996 120.015C225.02 120.112 217.793 121.579 208.856 123.292C199.916 125.005 192.652 126.315 192.629 126.217C192.606 126.12 199.83 124.653 208.77 122.94C217.707 121.227 224.972 119.918 224.996 120.015Z" fill="#263238"/>
<path d="M211.183 127.641C211.206 127.739 207.33 128.564 202.527 129.484C197.722 130.405 193.809 131.072 193.785 130.975C193.762 130.877 197.637 130.052 202.441 129.132C207.245 128.211 211.159 127.544 211.183 127.641Z" fill="#263238"/>
<path d="M423.195 214.413L434.258 239.614L438.87 233.003L445.26 240.447L452.882 234.017L445.619 227.809L452.322 223.787L423.195 214.413Z" fill="#0FCC7C"/>
<path d="M419.033 218.138C419.093 218.222 417.288 219.333 415.001 220.619C412.714 221.906 410.812 222.881 410.751 222.797C410.691 222.713 412.496 221.602 414.784 220.315C417.071 219.029 418.973 218.054 419.033 218.138Z" fill="#263238"/>
<path d="M419.892 213.063C419.875 213.108 419.194 212.954 418.115 212.647C417.035 212.34 415.558 211.874 413.955 211.297C412.351 210.721 410.923 210.153 409.897 209.725C408.872 209.296 408.251 209.006 408.274 208.96C408.297 208.915 408.958 209.122 410.011 209.491C411.202 209.919 412.583 210.415 414.107 210.962C415.635 211.5 417.018 211.986 418.212 212.407C419.264 212.775 419.911 213.015 419.892 213.063Z" fill="#263238"/>
<path d="M423.229 201.62C423.284 201.612 423.44 202.143 423.632 203.01C423.824 203.878 424.047 205.084 424.236 206.423C424.425 207.762 424.544 208.98 424.599 209.863C424.654 210.746 424.65 211.295 424.595 211.299C424.48 211.306 424.212 209.137 423.833 206.468C423.459 203.8 423.115 201.638 423.229 201.62Z" fill="#263238"/>
<path d="M438.545 207.259C438.592 207.36 436.543 208.142 434.236 209.453C431.928 210.762 430.103 211.911 430.029 211.819C429.996 211.779 430.416 211.449 431.129 210.955C431.843 210.464 432.848 209.802 434.02 209.148C436.362 207.818 438.514 207.173 438.545 207.259Z" fill="#263238"/>
<path d="M165.834 218.704C165.761 218.711 165.859 217.585 165.314 215.656C165.059 214.691 164.544 213.552 163.736 212.345C162.921 211.144 161.75 209.89 160.158 208.827C158.571 207.774 156.572 206.88 154.264 206.52C151.974 206.173 149.389 206.238 146.928 207.07C145.689 207.452 144.495 208.03 143.398 208.758C142.831 209.104 142.336 209.537 141.816 209.953C141.347 210.414 140.854 210.865 140.45 211.389C138.734 213.414 137.766 216.019 137.738 218.702C137.766 221.387 138.733 223.992 140.45 226.019C140.854 226.542 141.347 226.994 141.816 227.455C142.336 227.871 142.831 228.304 143.399 228.65C144.496 229.379 145.691 229.956 146.93 230.338C149.39 231.17 151.975 231.235 154.267 230.888C156.573 230.528 158.574 229.633 160.16 228.581C161.752 227.518 162.924 226.264 163.738 225.063C164.546 223.856 165.062 222.717 165.316 221.752C165.859 219.824 165.761 218.698 165.834 218.704C165.841 218.704 165.844 218.773 165.843 218.908C165.839 219.063 165.835 219.26 165.829 219.506C165.828 219.771 165.811 220.096 165.738 220.477C165.679 220.859 165.624 221.302 165.468 221.786C165.234 222.767 164.734 223.93 163.931 225.166C163.123 226.396 161.946 227.685 160.333 228.783C158.725 229.871 156.687 230.8 154.327 231.182C151.983 231.551 149.332 231.495 146.8 230.65C145.526 230.262 144.296 229.673 143.166 228.926C142.583 228.572 142.071 228.129 141.537 227.701C141.052 227.228 140.546 226.765 140.128 226.227C138.359 224.146 137.358 221.463 137.332 218.702C137.359 215.941 138.36 213.259 140.13 211.179C140.547 210.642 141.054 210.178 141.538 209.706C142.073 209.278 142.584 208.836 143.168 208.482C144.298 207.736 145.527 207.146 146.801 206.758C149.332 205.914 151.983 205.857 154.327 206.226C156.687 206.608 158.725 207.537 160.333 208.624C161.946 209.722 163.123 211.011 163.931 212.242C164.734 213.478 165.234 214.64 165.468 215.622C165.623 216.105 165.679 216.549 165.738 216.931C165.811 217.311 165.828 217.637 165.829 217.902C165.835 218.148 165.839 218.345 165.843 218.5C165.844 218.635 165.842 218.704 165.834 218.704Z" fill="#263238"/>
<path d="M151.683 225.008C151.571 225.008 151.48 222.186 151.48 218.705C151.48 215.223 151.572 212.401 151.683 212.401C151.796 212.401 151.886 215.223 151.886 218.705C151.886 222.186 151.796 225.008 151.683 225.008Z" fill="#263238"/>
<path d="M158.791 218.704C158.791 218.804 155.61 218.884 151.687 218.884C147.763 218.884 144.582 218.803 144.582 218.704C144.582 218.605 147.762 218.524 151.687 218.524C155.61 218.524 158.791 218.605 158.791 218.704Z" fill="#263238"/>
<path d="M382.933 259.282C382.839 259.336 373.041 245.892 361.053 229.258C349.06 212.618 339.418 199.091 339.512 199.037C339.607 198.984 349.402 212.425 361.395 229.064C373.383 245.697 383.028 259.228 382.933 259.282Z" fill="#263238"/>
<path d="M387.189 288.637C399.745 288.637 409.924 279.606 409.924 268.466C409.924 257.326 399.745 248.295 387.189 248.295C374.632 248.295 364.453 257.326 364.453 268.466C364.453 279.606 374.632 288.637 387.189 288.637Z" fill="white"/>
<path d="M364.454 268.466C364.454 268.466 364.446 268.355 364.451 268.138C364.46 267.906 364.471 267.587 364.486 267.177C364.495 266.964 364.505 266.728 364.516 266.468C364.541 266.209 364.598 265.927 364.644 265.621C364.742 265.008 364.834 264.297 365.088 263.523C365.47 261.951 366.278 260.09 367.57 258.113C368.872 256.144 370.761 254.083 373.346 252.33C375.923 250.593 379.187 249.111 382.963 248.505C383.909 248.382 384.866 248.207 385.858 248.2C386.352 248.183 386.849 248.139 387.351 248.145C387.852 248.166 388.358 248.189 388.867 248.211C389.378 248.216 389.886 248.28 390.397 248.355C390.907 248.429 391.426 248.481 391.939 248.575C392.952 248.816 394 248.998 394.997 249.364C396.026 249.655 396.995 250.103 397.989 250.525C398.474 250.757 398.939 251.028 399.418 251.28C399.907 251.521 400.354 251.82 400.804 252.123C401.736 252.69 402.553 253.399 403.407 254.082C404.18 254.837 404.991 255.578 405.657 256.437C407.025 258.117 408.217 259.987 408.941 262.041C409.691 264.084 410.094 266.254 410.127 268.461C410.095 270.67 409.692 272.841 408.943 274.884C408.22 276.94 407.026 278.809 405.659 280.49C404.992 281.349 404.182 282.09 403.409 282.846C402.555 283.53 401.737 284.238 400.804 284.805C400.355 285.108 399.908 285.408 399.419 285.649C398.939 285.901 398.475 286.172 397.989 286.404C396.994 286.826 396.025 287.274 394.997 287.565C393.999 287.932 392.95 288.113 391.938 288.354C391.424 288.447 390.905 288.5 390.395 288.574C389.884 288.65 389.376 288.714 388.865 288.718C388.355 288.74 387.85 288.762 387.348 288.784C386.847 288.79 386.349 288.746 385.855 288.729C384.863 288.721 383.906 288.546 382.96 288.424C379.184 287.817 375.921 286.335 373.344 284.598C370.758 282.845 368.869 280.784 367.568 278.815C366.277 276.838 365.469 274.977 365.087 273.406C364.834 272.631 364.742 271.921 364.643 271.308C364.597 271.002 364.54 270.72 364.515 270.461C364.505 270.201 364.494 269.965 364.485 269.752C364.47 269.342 364.459 269.023 364.451 268.792C364.446 268.576 364.454 268.466 364.454 268.466C364.454 268.466 364.474 268.576 364.493 268.792C364.511 269.023 364.536 269.341 364.568 269.749C364.583 269.961 364.599 270.196 364.618 270.454C364.649 270.712 364.712 270.991 364.764 271.295C364.874 271.903 364.978 272.607 365.242 273.373C365.644 274.929 366.469 276.767 367.765 278.714C369.072 280.653 370.956 282.679 373.519 284.398C376.075 286.1 379.301 287.548 383.023 288.133C383.956 288.25 384.899 288.42 385.877 288.424C386.363 288.439 386.853 288.481 387.348 288.474C387.841 288.451 388.339 288.428 388.84 288.405C389.343 288.399 389.843 288.334 390.347 288.258C390.849 288.184 391.359 288.132 391.864 288.039C392.859 287.798 393.89 287.619 394.87 287.255C395.882 286.968 396.833 286.523 397.811 286.107C398.287 285.878 398.743 285.611 399.215 285.363C399.695 285.125 400.134 284.829 400.575 284.53C401.492 283.972 402.293 283.274 403.132 282.601C403.89 281.856 404.686 281.127 405.34 280.282C406.681 278.629 407.852 276.792 408.561 274.772C409.295 272.765 409.69 270.633 409.723 268.463C409.69 266.294 409.294 264.162 408.56 262.155C407.851 260.136 406.68 258.299 405.338 256.647C404.685 255.802 403.888 255.073 403.13 254.329C402.291 253.657 401.49 252.959 400.574 252.4C400.134 252.101 399.694 251.806 399.214 251.568C398.743 251.32 398.287 251.053 397.811 250.824C396.834 250.408 395.882 249.964 394.871 249.676C393.891 249.312 392.86 249.133 391.865 248.892C391.36 248.8 390.85 248.747 390.348 248.673C389.846 248.597 389.346 248.533 388.843 248.526C388.341 248.503 387.844 248.48 387.35 248.457C386.856 248.45 386.366 248.492 385.88 248.507C384.902 248.511 383.959 248.681 383.027 248.798C379.304 249.382 376.079 250.831 373.523 252.533C370.958 254.251 369.074 256.277 367.767 258.216C366.471 260.163 365.646 262.001 365.244 263.557C364.981 264.323 364.877 265.027 364.767 265.635C364.714 265.94 364.652 266.219 364.62 266.477C364.602 266.735 364.585 266.969 364.57 267.181C364.538 267.59 364.513 267.907 364.495 268.138C364.474 268.356 364.454 268.466 364.454 268.466Z" fill="#263238"/>
<path d="M380.988 261.055L377.875 276.836L387.188 275.699L396.5 276.836L392.755 261.055H380.988Z" fill="#263238"/>
<path d="M391.121 261.261C391.054 261.282 390.867 260.7 390.374 259.863C390.126 259.448 389.771 258.978 389.256 258.583C388.991 258.394 388.687 258.23 388.346 258.112C388 258.008 387.624 257.946 387.231 257.941C386.434 257.934 385.671 258.069 385.108 258.395C384.54 258.717 384.182 259.187 383.944 259.602C383.478 260.447 383.323 261.039 383.252 261.02C383.215 261.012 383.265 260.408 383.684 259.493C383.9 259.044 384.263 258.504 384.901 258.118C385.536 257.727 386.386 257.572 387.236 257.579C387.671 257.586 388.096 257.657 388.487 257.781C388.873 257.92 389.213 258.112 389.5 258.33C390.059 258.784 390.407 259.303 390.632 259.749C391.075 260.65 391.16 261.252 391.121 261.261Z" fill="#263238"/>
<path d="M296.468 260.633C296.356 260.633 296.266 246.742 296.266 229.611C296.266 212.475 296.356 198.587 296.468 198.587C296.581 198.587 296.671 212.475 296.671 229.611C296.671 246.742 296.581 260.633 296.468 260.633Z" fill="#263238"/>
<path d="M296.001 289.087C308.557 289.087 318.736 280.056 318.736 268.916C318.736 257.776 308.557 248.745 296.001 248.745C283.445 248.745 273.266 257.776 273.266 268.916C273.266 280.056 283.445 289.087 296.001 289.087Z" fill="white"/>
<path d="M273.267 268.916C273.267 268.916 273.259 268.805 273.264 268.589C273.273 268.357 273.284 268.038 273.299 267.628C273.308 267.415 273.318 267.179 273.329 266.92C273.354 266.66 273.411 266.379 273.457 266.072C273.555 265.46 273.647 264.748 273.901 263.974C274.283 262.402 275.091 260.541 276.383 258.564C277.684 256.595 279.574 254.535 282.159 252.781C284.736 251.044 288 249.562 291.775 248.956C292.722 248.834 293.679 248.658 294.671 248.651C295.164 248.634 295.662 248.591 296.164 248.596C296.665 248.618 297.17 248.64 297.68 248.662C298.191 248.667 298.699 248.731 299.21 248.807C299.72 248.881 300.24 248.932 300.752 249.026C301.764 249.267 302.813 249.449 303.81 249.816C304.839 250.106 305.808 250.555 306.802 250.977C307.287 251.208 307.752 251.479 308.231 251.731C308.719 251.972 309.167 252.271 309.616 252.575C310.549 253.141 311.366 253.849 312.22 254.533C312.993 255.289 313.804 256.03 314.47 256.888C315.838 258.569 317.031 260.437 317.754 262.492C318.503 264.535 318.907 266.705 318.939 268.913C318.907 271.121 318.505 273.292 317.755 275.335C317.032 277.391 315.839 279.26 314.472 280.941C313.805 281.8 312.995 282.542 312.221 283.297C311.367 283.981 310.549 284.69 309.616 285.256C309.167 285.559 308.72 285.859 308.231 286.101C307.752 286.352 307.287 286.622 306.802 286.855C305.806 287.277 304.838 287.725 303.809 288.016C302.811 288.383 301.762 288.564 300.75 288.806C300.237 288.899 299.718 288.951 299.207 289.025C298.696 289.1 298.188 289.165 297.677 289.17C297.167 289.192 296.662 289.214 296.16 289.235C295.659 289.241 295.161 289.197 294.668 289.181C293.675 289.173 292.718 288.997 291.772 288.875C287.996 288.269 284.733 286.786 282.156 285.049C279.57 283.296 277.681 281.235 276.38 279.266C275.089 277.289 274.281 275.428 273.899 273.857C273.647 273.083 273.554 272.372 273.455 271.76C273.409 271.453 273.352 271.171 273.328 270.912C273.317 270.652 273.306 270.416 273.297 270.203C273.282 269.794 273.271 269.475 273.263 269.243C273.259 269.027 273.267 268.916 273.267 268.916C273.267 268.916 273.287 269.027 273.306 269.243C273.324 269.474 273.349 269.791 273.381 270.2C273.395 270.412 273.412 270.646 273.431 270.904C273.462 271.162 273.525 271.442 273.577 271.746C273.687 272.353 273.791 273.058 274.054 273.824C274.457 275.38 275.281 277.218 276.578 279.165C277.885 281.104 279.769 283.13 282.332 284.849C284.888 286.551 288.113 287.999 291.836 288.584C292.769 288.701 293.712 288.871 294.689 288.875C295.176 288.89 295.666 288.932 296.16 288.925C296.654 288.902 297.152 288.88 297.653 288.856C298.156 288.85 298.656 288.785 299.159 288.709C299.661 288.635 300.171 288.583 300.676 288.49C301.671 288.249 302.702 288.07 303.682 287.706C304.694 287.419 305.645 286.975 306.623 286.559C307.099 286.33 307.555 286.062 308.027 285.814C308.507 285.577 308.946 285.281 309.387 284.982C310.304 284.423 311.105 283.725 311.944 283.052C312.702 282.308 313.498 281.579 314.152 280.733C315.493 279.08 316.664 277.244 317.372 275.224C318.106 273.216 318.501 271.083 318.534 268.914C318.501 266.745 318.106 264.613 317.371 262.606C316.662 260.587 315.491 258.751 314.15 257.098C313.496 256.253 312.7 255.524 311.942 254.78C311.102 254.108 310.301 253.41 309.386 252.851C308.945 252.552 308.506 252.257 308.025 252.02C307.554 251.771 307.098 251.505 306.622 251.275C305.645 250.859 304.693 250.415 303.682 250.128C302.702 249.764 301.672 249.584 300.676 249.344C300.172 249.251 299.661 249.198 299.159 249.124C298.657 249.048 298.157 248.984 297.654 248.977C297.153 248.954 296.655 248.931 296.161 248.908C295.667 248.901 295.177 248.944 294.691 248.958C293.714 248.962 292.771 249.132 291.838 249.249C288.115 249.833 284.89 251.282 282.334 252.984C279.769 254.702 277.886 256.728 276.578 258.667C275.282 260.614 274.458 262.452 274.055 264.008C273.792 264.774 273.688 265.479 273.578 266.087C273.526 266.39 273.463 266.67 273.431 266.928C273.413 267.186 273.396 267.421 273.381 267.632C273.349 268.041 273.324 268.358 273.306 268.589C273.287 268.805 273.267 268.916 273.267 268.916Z" fill="#263238"/>
<path d="M296 259.882L286.137 267.832V277.912H293.818V271.871H298.706V277.912H305.864V267.832L296 259.882Z" fill="#263238"/>
<path d="M208.458 259.986C208.363 259.933 218.153 246.201 230.32 229.319C242.492 212.431 252.432 198.789 252.527 198.843C252.621 198.896 242.834 212.625 230.663 229.513C218.494 246.394 208.552 260.039 208.458 259.986Z" fill="#263238"/>
<path d="M204.774 288.831C217.331 288.831 227.51 279.801 227.51 268.66C227.51 257.52 217.331 248.489 204.774 248.489C192.218 248.489 182.039 257.52 182.039 268.66C182.039 279.801 192.218 288.831 204.774 288.831Z" fill="white"/>
<path d="M227.51 268.661C227.51 268.661 227.49 268.55 227.471 268.334C227.453 268.103 227.428 267.785 227.396 267.377C227.382 267.165 227.364 266.93 227.346 266.672C227.315 266.414 227.252 266.135 227.2 265.831C227.09 265.223 226.985 264.518 226.722 263.752C226.319 262.197 225.496 260.359 224.199 258.411C222.892 256.472 221.008 254.447 218.444 252.729C215.888 251.026 212.663 249.579 208.94 248.994C208.007 248.877 207.064 248.707 206.087 248.703C205.6 248.688 205.11 248.646 204.617 248.653C204.123 248.676 203.625 248.698 203.124 248.722C202.621 248.728 202.121 248.792 201.618 248.869C201.117 248.943 200.606 248.995 200.101 249.088C199.106 249.329 198.075 249.508 197.095 249.872C196.084 250.159 195.133 250.603 194.156 251.019C193.68 251.248 193.224 251.515 192.752 251.764C192.272 252.001 191.833 252.297 191.392 252.596C190.476 253.154 189.675 253.852 188.835 254.524C188.077 255.269 187.281 255.998 186.627 256.843C185.286 258.495 184.115 260.332 183.406 262.351C182.671 264.358 182.276 266.489 182.243 268.658C182.275 270.828 182.67 272.961 183.404 274.968C184.113 276.988 185.284 278.825 186.626 280.478C187.279 281.323 188.076 282.052 188.834 282.797C189.673 283.469 190.474 284.168 191.391 284.726C191.831 285.025 192.27 285.32 192.751 285.558C193.222 285.806 193.678 286.073 194.155 286.302C195.132 286.718 196.084 287.162 197.095 287.45C198.076 287.814 199.107 287.993 200.102 288.234C200.607 288.326 201.118 288.379 201.619 288.453C202.121 288.529 202.621 288.594 203.124 288.6C203.626 288.623 204.124 288.646 204.617 288.669C205.111 288.676 205.602 288.634 206.088 288.619C207.066 288.615 208.009 288.444 208.941 288.328C212.664 287.743 215.889 286.295 218.445 284.592C221.009 282.873 222.894 280.849 224.2 278.909C225.496 276.962 226.32 275.124 226.723 273.568C226.986 272.802 227.091 272.098 227.201 271.489C227.253 271.186 227.315 270.906 227.347 270.648C227.365 270.39 227.382 270.155 227.397 269.943C227.429 269.535 227.454 269.218 227.472 268.986C227.49 268.771 227.51 268.661 227.51 268.661C227.51 268.661 227.518 268.771 227.513 268.987C227.504 269.219 227.493 269.538 227.478 269.948C227.469 270.161 227.459 270.397 227.448 270.656C227.423 270.916 227.366 271.197 227.32 271.504C227.222 272.116 227.13 272.828 226.876 273.601C226.494 275.173 225.686 277.034 224.395 279.011C223.093 280.979 221.205 283.04 218.619 284.794C216.042 286.531 212.779 288.014 209.003 288.621C208.057 288.742 207.1 288.918 206.108 288.926C205.614 288.942 205.117 288.986 204.615 288.98C204.113 288.959 203.608 288.937 203.099 288.915C202.588 288.91 202.079 288.845 201.568 288.77C201.058 288.696 200.539 288.644 200.026 288.551C199.013 288.309 197.964 288.128 196.967 287.761C195.938 287.47 194.969 287.022 193.974 286.6C193.489 286.367 193.024 286.098 192.544 285.846C192.056 285.604 191.607 285.304 191.159 285.001C190.226 284.435 189.409 283.726 188.555 283.042C187.781 282.287 186.97 281.545 186.304 280.686C184.936 279.005 183.743 277.136 183.02 275.08C182.27 273.037 181.868 270.866 181.836 268.658C181.869 266.45 182.272 264.28 183.021 262.237C183.745 260.182 184.938 258.314 186.305 256.634C186.971 255.775 187.782 255.034 188.555 254.278C189.409 253.594 190.227 252.886 191.159 252.32C191.607 252.017 192.055 251.717 192.544 251.476C193.024 251.224 193.489 250.954 193.974 250.722C194.968 250.3 195.937 249.851 196.966 249.561C197.963 249.194 199.012 249.013 200.024 248.771C200.537 248.678 201.056 248.626 201.567 248.552C202.078 248.476 202.586 248.412 203.097 248.407C203.606 248.385 204.112 248.363 204.613 248.341C205.115 248.336 205.613 248.379 206.106 248.396C207.098 248.404 208.055 248.579 209.002 248.701C212.777 249.307 216.041 250.79 218.618 252.527C221.203 254.28 223.092 256.341 224.394 258.309C225.685 260.286 226.493 262.147 226.876 263.719C227.129 264.493 227.222 265.204 227.32 265.817C227.366 266.124 227.423 266.405 227.448 266.665C227.459 266.924 227.469 267.16 227.478 267.373C227.493 267.783 227.505 268.102 227.513 268.335C227.518 268.55 227.51 268.661 227.51 268.661Z" fill="#263238"/>
<path d="M213.565 258.159H195.715V279.161H213.565V258.159Z" fill="#263238"/>
<path d="M205.511 261.514C205.511 261.614 204.199 261.694 202.58 261.694C200.96 261.694 199.648 261.613 199.648 261.514C199.648 261.414 200.96 261.334 202.58 261.334C204.198 261.333 205.511 261.414 205.511 261.514Z" fill="#455A64"/>
<path d="M210.677 264.467C210.677 264.567 208.052 264.647 204.815 264.647C201.577 264.647 198.953 264.566 198.953 264.467C198.953 264.367 201.577 264.287 204.815 264.287C208.052 264.287 210.677 264.367 210.677 264.467Z" fill="#455A64"/>
<path d="M210.677 266.263C210.677 266.363 208.052 266.443 204.815 266.443C201.577 266.443 198.953 266.362 198.953 266.263C198.953 266.164 201.577 266.083 204.815 266.083C208.052 266.083 210.677 266.163 210.677 266.263Z" fill="#455A64"/>
<path d="M210.677 268.059C210.677 268.158 208.052 268.239 204.815 268.239C201.577 268.239 198.953 268.158 198.953 268.059C198.953 267.96 201.577 267.879 204.815 267.879C208.052 267.879 210.677 267.959 210.677 268.059Z" fill="#455A64"/>
<path d="M210.677 269.855C210.677 269.954 208.052 270.035 204.815 270.035C201.577 270.035 198.953 269.954 198.953 269.855C198.953 269.756 201.577 269.675 204.815 269.675C208.052 269.675 210.677 269.755 210.677 269.855Z" fill="#455A64"/>
<path d="M210.677 271.651C210.677 271.75 208.052 271.831 204.815 271.831C201.577 271.831 198.953 271.75 198.953 271.651C198.953 271.551 201.577 271.471 204.815 271.471C208.052 271.47 210.677 271.551 210.677 271.651Z" fill="#455A64"/>
<path d="M210.677 273.447C210.677 273.546 208.052 273.626 204.815 273.626C201.577 273.626 198.953 273.545 198.953 273.447C198.953 273.347 201.577 273.267 204.815 273.267C208.052 273.266 210.677 273.347 210.677 273.447Z" fill="#455A64"/>
<path d="M210.677 275.241C210.677 275.341 208.052 275.421 204.815 275.421C201.577 275.421 198.953 275.34 198.953 275.241C198.953 275.142 201.577 275.062 204.815 275.062C208.052 275.061 210.677 275.142 210.677 275.241Z" fill="#455A64"/>
<path d="M401.051 199.358H199.763C189.515 199.358 181.207 191.988 181.207 182.895V181.091C181.207 171.998 189.515 164.628 199.763 164.628H401.051C411.299 164.628 419.607 171.998 419.607 181.091V182.895C419.607 191.988 411.299 199.358 401.051 199.358Z" fill="white"/>
<path d="M366.789 164.312V199.358H400.096C411.004 199.358 419.847 191.513 419.847 181.835C419.847 172.157 411.004 164.312 400.096 164.312L366.789 164.312Z" fill="#0FCC7C"/>
<path d="M397.784 180.861C397.73 180.865 397.776 180.202 397.446 179.072C397.12 177.964 396.282 176.337 394.403 175.082C393.472 174.468 392.301 173.948 390.952 173.741C389.613 173.541 388.103 173.581 386.667 174.069C385.944 174.293 385.248 174.63 384.608 175.056C383.961 175.474 383.373 175.992 382.889 176.592C381.888 177.775 381.325 179.294 381.308 180.86C381.324 182.426 381.887 183.945 382.888 185.129C383.373 185.729 383.96 186.248 384.607 186.666C385.247 187.092 385.944 187.43 386.667 187.654C388.103 188.141 389.613 188.182 390.952 187.982C392.301 187.774 393.472 187.254 394.403 186.641C396.282 185.385 397.119 183.759 397.446 182.651C397.776 181.521 397.73 180.858 397.784 180.861C397.784 180.861 397.888 181.522 397.6 182.685C397.315 183.823 396.499 185.516 394.578 186.843C393.626 187.491 392.417 188.046 391.015 188.275C389.622 188.497 388.047 188.466 386.54 187.966C385.782 187.736 385.05 187.386 384.377 186.942C383.697 186.507 383.078 185.966 382.568 185.338C381.515 184.101 380.918 182.504 380.902 180.86C380.918 179.218 381.515 177.621 382.568 176.384C383.078 175.756 383.697 175.215 384.377 174.78C385.05 174.336 385.782 173.987 386.539 173.756C388.045 173.256 389.622 173.225 391.013 173.447C392.415 173.676 393.624 174.231 394.576 174.879C396.498 176.205 397.314 177.899 397.598 179.038C397.888 180.2 397.784 180.861 397.784 180.861Z" fill="white"/>
<path d="M405.529 191.211C405.464 191.292 403.312 190.024 400.724 188.38C398.134 186.735 396.089 185.337 396.154 185.256C396.219 185.175 398.371 186.442 400.96 188.087C403.549 189.731 405.595 191.13 405.529 191.211Z" fill="white"/>
<path d="M349.612 178.739H203.875V186.173H349.612V178.739Z" fill="#EBEBEB"/>
<path d="M401.053 199.358C401.053 199.358 401.51 199.325 402.401 199.279C402.849 199.276 403.395 199.189 404.047 199.096C404.706 199.033 405.443 198.838 406.284 198.646C407.938 198.189 409.954 197.447 411.998 196.101C412.252 195.932 412.511 195.76 412.774 195.584C413.024 195.394 413.267 195.188 413.521 194.985C414.045 194.594 414.512 194.122 415 193.639C415.506 193.169 415.907 192.596 416.385 192.053C416.586 191.758 416.791 191.458 416.998 191.154L417.31 190.694L417.575 190.203C418.348 188.909 418.858 187.415 419.21 185.829C419.278 185.428 419.347 185.022 419.417 184.611C419.442 184.197 419.467 183.777 419.492 183.353C419.534 182.505 419.524 181.623 419.493 180.736C419.435 177.191 417.929 173.315 414.807 170.215C411.726 167.118 406.945 164.89 401.625 164.767C396.303 164.72 390.661 164.761 384.745 164.754C337.4 164.768 272.006 164.786 199.779 164.806C195.305 164.811 190.9 166.307 187.608 168.916C184.302 171.501 182.09 175.15 181.583 178.99C181.475 179.464 181.488 179.949 181.451 180.43C181.413 180.909 181.406 181.394 181.412 181.881C181.399 182.857 181.445 183.813 181.543 184.766C181.762 186.674 182.429 188.523 183.388 190.217C185.321 193.606 188.587 196.351 192.46 197.831C194.396 198.568 196.463 199.001 198.544 199.126C199.581 199.192 200.636 199.184 201.686 199.182C202.736 199.182 203.784 199.182 204.829 199.182C209.009 199.183 213.148 199.184 217.244 199.185C225.437 199.187 233.457 199.189 241.282 199.191C272.581 199.206 300.766 199.219 324.438 199.23C348.105 199.254 367.257 199.274 380.499 199.287C387.113 199.302 392.251 199.314 395.741 199.321C397.48 199.329 398.807 199.335 399.705 199.339C400.595 199.346 401.053 199.358 401.053 199.358C401.053 199.358 400.596 199.37 399.703 199.377C398.804 199.381 397.478 199.387 395.739 199.395C392.249 199.402 387.112 199.414 380.497 199.429C367.255 199.442 348.102 199.462 324.436 199.486C300.764 199.497 272.579 199.51 241.279 199.525C233.454 199.527 225.434 199.529 217.242 199.531C213.146 199.532 209.006 199.532 204.826 199.533C203.781 199.533 202.734 199.534 201.684 199.534C200.634 199.536 199.583 199.546 198.515 199.478C196.39 199.351 194.277 198.91 192.299 198.157C188.34 196.645 185.003 193.842 183.027 190.379C182.046 188.647 181.364 186.757 181.14 184.808C181.039 183.836 180.993 182.849 181.006 181.882C181 181.397 181.006 180.91 181.044 180.417C181.083 179.926 181.07 179.43 181.179 178.945C181.699 175.021 183.958 171.29 187.336 168.648C190.7 165.982 195.205 164.451 199.776 164.447C272.003 164.468 337.397 164.487 384.742 164.5C390.662 164.516 396.292 164.483 401.63 164.539C407.025 164.672 411.864 166.941 414.974 170.082C418.127 173.226 419.637 177.151 419.684 180.733C419.712 181.63 419.719 182.499 419.674 183.358C419.648 183.787 419.621 184.21 419.595 184.629C419.523 185.043 419.451 185.453 419.381 185.858C419.02 187.459 418.499 188.965 417.714 190.267C417.624 190.433 417.534 190.598 417.444 190.761L417.128 191.224C416.918 191.53 416.711 191.831 416.507 192.128C416.022 192.674 415.615 193.25 415.103 193.721C414.61 194.206 414.136 194.679 413.607 195.072C413.351 195.275 413.105 195.481 412.852 195.672C412.586 195.847 412.325 196.02 412.069 196.189C410.004 197.534 407.971 198.27 406.306 198.717C405.459 198.905 404.718 199.094 404.056 199.152C403.401 199.24 402.851 199.32 402.402 199.317C401.51 199.35 401.053 199.358 401.053 199.358Z" fill="#263238"/>
<path d="M297.762 177.766C297.053 177.032 296.981 176.411 298.577 176.284C302.096 176.003 304.689 174.64 305.098 173.851C305.507 173.062 304.392 172.291 303.438 172.765C302.666 173.149 301.156 173.444 300.011 173.626C299.066 173.776 298.101 173.793 297.155 173.661C296.336 173.547 295.616 173.424 294.971 173.303C294.971 173.303 291.247 172.591 289.639 171.478L281.762 178.946L285.456 182.65C285.456 182.65 287.22 184.99 290.39 184.713C293.56 184.435 297.821 182.417 297.821 182.417C298.398 181.632 303.5 184.423 305.144 185.47C306.767 186.505 308.001 186.254 307.94 185.247C307.898 184.56 302.954 181.25 301.302 180.248C300.398 179.699 298.616 178.65 297.762 177.766Z" fill="#FFBE9D"/>
<path d="M293.132 184.255C293.141 184.297 292.905 184.386 292.498 184.376C292.095 184.37 291.53 184.228 291.031 183.894C290.533 183.559 290.225 183.116 290.108 182.773C289.986 182.428 290.019 182.203 290.067 182.199C290.179 182.176 290.372 183.021 291.275 183.607C292.158 184.218 293.127 184.153 293.132 184.255Z" fill="#EB996E"/>
<path d="M296.251 183.164C296.257 183.207 296.027 183.283 295.639 183.261C295.254 183.241 294.719 183.094 294.247 182.769C293.776 182.443 293.483 182.02 293.367 181.693C293.248 181.365 293.273 181.149 293.322 181.143C293.435 181.119 293.645 181.915 294.496 182.485C295.328 183.077 296.25 183.061 296.251 183.164Z" fill="#EB996E"/>
<path d="M304.747 105.481C305.076 111.614 313.506 120.014 319.776 121.373C323.073 122.087 326.866 121.751 329.477 123.716C333.956 127.086 331.336 134.071 334.358 138.591C336.216 141.369 339.904 142.733 341.994 145.372C345.466 149.758 343.135 156.386 338.397 159.652C333.659 162.918 327.348 163.542 321.41 163.406C308.349 163.106 294.973 159.424 285.532 151.209C281.097 147.35 263.743 135.436 269.794 107.199" fill="#263238"/>
<path d="M351.89 149.358L302.228 136.277C298.112 134.726 294.995 134.346 294.995 134.346L278.229 134.445C275.951 134.445 273.808 134.88 271.797 135.639L226.594 148.96C223.249 149.899 220.938 152.943 220.938 156.41C220.938 160.684 224.41 164.149 228.694 164.149H249.568C249.508 164.324 249.476 164.421 249.476 164.421L322.079 164.662C322.079 164.654 322.079 164.646 322.079 164.637L349.789 164.692C354.072 164.692 357.545 161.194 357.545 156.879C357.546 153.378 355.235 150.305 351.89 149.358Z" fill="#0FCC7C"/>
<path d="M341.937 154.12C341.935 154.133 341.78 154.125 341.487 154.099C341.15 154.066 340.727 154.023 340.208 153.971C339.1 153.846 337.492 153.687 335.506 153.517C331.532 153.174 326.02 152.87 319.929 152.937C313.836 153.012 308.335 153.443 304.372 153.879C302.39 154.095 300.789 154.291 299.685 154.442C299.168 154.506 298.746 154.558 298.41 154.6C298.118 154.633 297.963 154.644 297.961 154.632C297.959 154.619 298.108 154.585 298.396 154.529C298.728 154.47 299.147 154.396 299.659 154.304C300.756 154.111 302.355 153.877 304.335 153.627C308.296 153.126 313.812 152.652 319.924 152.578C326.034 152.511 331.561 152.856 335.536 153.265C337.524 153.468 339.128 153.665 340.231 153.833C340.746 153.913 341.167 153.977 341.5 154.029C341.788 154.077 341.94 154.108 341.937 154.12Z" fill="#263238"/>
<g opacity="0.6">
<path d="M330.286 143.414C330.29 143.418 330.243 143.469 330.147 143.562C330.032 143.67 329.889 143.805 329.709 143.972C329.317 144.326 328.739 144.847 327.953 145.483C327.169 146.117 326.182 146.875 324.935 147.639C323.687 148.388 322.162 149.171 320.298 149.599C318.446 150.06 316.262 150.013 314.093 149.489C311.91 148.97 309.759 147.992 307.56 146.929C305.351 145.888 303.074 144.681 300.486 143.987C297.93 143.236 294.992 143.259 292.397 144.356C289.784 145.401 287.56 146.995 285.131 148.143C284.529 148.441 283.893 148.67 283.277 148.918C282.639 149.118 282.016 149.343 281.37 149.481C280.097 149.813 278.805 149.982 277.545 150.067C272.465 150.39 267.93 148.927 264.84 146.966C263.277 145.978 262.092 144.859 261.003 143.943C259.921 143.017 258.928 142.28 258.032 141.788C256.223 140.796 254.961 140.843 254.989 140.776C254.989 140.776 255.285 140.772 255.837 140.866C256.389 140.953 257.191 141.187 258.113 141.668C259.036 142.15 260.058 142.881 261.158 143.797C262.267 144.704 263.462 145.803 265.005 146.759C268.066 148.662 272.535 150.071 277.518 149.736C278.754 149.648 280.02 149.478 281.265 149.15C281.898 149.013 282.505 148.791 283.129 148.595C283.731 148.35 284.352 148.127 284.942 147.833C287.329 146.703 289.551 145.103 292.232 144.028C294.897 142.895 297.995 142.872 300.602 143.65C303.253 144.369 305.536 145.591 307.739 146.638C309.931 147.708 312.051 148.683 314.184 149.202C316.304 149.725 318.415 149.786 320.227 149.353C322.05 148.951 323.561 148.198 324.809 147.472C326.054 146.732 327.05 145.995 327.849 145.378C328.647 144.762 329.243 144.256 329.652 143.92C329.843 143.763 329.995 143.637 330.118 143.537C330.224 143.452 330.281 143.41 330.286 143.414Z" fill="white"/>
</g>
<g opacity="0.2">
<path d="M253.113 154.031L284.504 159.282L280.878 164.522L279.923 164.535L253.113 154.031Z" fill="black"/>
</g>
<g opacity="0.6">
<path d="M348.136 148.528C348.15 148.529 348.154 148.675 348.151 148.955C348.143 149.235 348.11 149.648 348.013 150.174C347.816 151.218 347.335 152.746 346.123 154.341C344.932 155.927 342.916 157.539 340.195 158.376C338.846 158.799 337.339 159.037 335.777 158.989C334.216 158.937 332.635 158.621 331.068 158.225C329.496 157.832 327.986 157.398 326.495 157.131C325.007 156.844 323.537 156.788 322.156 156.931C319.387 157.225 317.048 158.247 315.388 159.39C313.691 160.517 312.655 161.767 312.025 162.65C311.876 162.871 311.741 163.071 311.619 163.251C311.522 163.423 311.436 163.574 311.36 163.709C311.217 163.957 311.135 164.085 311.123 164.08C311.11 164.075 311.166 163.938 311.286 163.679C311.352 163.539 311.427 163.381 311.512 163.202C311.625 163.015 311.751 162.808 311.89 162.579C312.486 161.662 313.503 160.366 315.212 159.189C316.885 157.998 319.264 156.924 322.112 156.601C323.53 156.445 325.059 156.497 326.573 156.785C328.095 157.052 329.617 157.488 331.178 157.878C332.736 158.272 334.28 158.581 335.792 158.636C337.3 158.687 338.76 158.464 340.072 158.063C342.72 157.267 344.694 155.727 345.887 154.197C347.101 152.658 347.617 151.17 347.859 150.148C348.095 149.116 348.094 148.526 348.136 148.528Z" fill="white"/>
</g>
<path d="M226.637 163.255C226.637 163.255 283.386 185.472 283.093 184.967C282.801 184.463 292.104 169.892 292.104 169.892L246.124 149.73L226.637 163.255Z" fill="#0FCC7C"/>
<path d="M252.688 152.608C252.7 152.585 253.116 152.741 253.857 153.042C254.659 153.377 255.71 153.817 256.98 154.348C259.609 155.464 263.229 157.029 267.216 158.777C271.204 160.526 274.805 162.127 277.403 163.303C278.65 163.876 279.683 164.35 280.47 164.712C281.19 165.052 281.583 165.25 281.571 165.273C281.559 165.296 281.143 165.14 280.402 164.839C279.601 164.504 278.549 164.065 277.28 163.534C274.651 162.417 271.03 160.853 267.042 159.103C263.054 157.355 259.453 155.753 256.856 154.578C255.609 154.005 254.576 153.531 253.789 153.169C253.068 152.829 252.675 152.63 252.688 152.608Z" fill="#263238"/>
<g opacity="0.6">
<path d="M265.149 159.347C265.149 159.347 265.118 159.921 264.621 160.84C264.141 161.757 263.042 162.959 261.237 163.842C260.338 164.278 259.277 164.647 258.086 164.837C256.893 165.028 255.589 165.038 254.247 164.877C251.55 164.57 248.766 163.572 245.971 162.414C243.176 161.253 240.511 160.134 237.923 159.598C236.635 159.322 235.377 159.19 234.205 159.216C233.031 159.242 231.947 159.429 230.997 159.696C229.088 160.238 227.758 161.146 227.036 161.898C226.299 162.648 226.051 163.171 226.008 163.149C226.008 163.149 226.2 162.603 226.915 161.807C227.615 161.011 228.957 160.042 230.906 159.455C231.876 159.164 232.987 158.957 234.194 158.917C235.402 158.878 236.692 159.003 238.008 159.275C240.653 159.805 243.352 160.93 246.142 162.088C248.929 163.244 251.667 164.233 254.297 164.549C255.606 164.715 256.874 164.716 258.026 164.544C259.182 164.373 260.219 164.028 261.1 163.618C262.87 162.788 263.97 161.651 264.481 160.776C265.009 159.899 265.1 159.335 265.149 159.347Z" fill="white"/>
</g>
<g opacity="0.6">
<path d="M289.242 174.575C289.231 174.642 287.983 174.457 285.956 174.428C284.942 174.408 283.736 174.459 282.407 174.588C281.08 174.736 279.631 174.972 278.144 175.338C276.661 175.717 275.288 176.191 274.07 176.683C272.862 177.192 271.805 177.709 270.954 178.198C269.245 179.166 268.292 179.903 268.243 179.851C268.225 179.833 268.451 179.638 268.878 179.299C269.299 178.955 269.953 178.501 270.796 177.985C271.636 177.463 272.693 176.916 273.911 176.383C275.137 175.868 276.527 175.377 278.034 174.992C279.544 174.619 281.018 174.39 282.367 174.259C283.718 174.146 284.942 174.121 285.966 174.174C286.988 174.221 287.814 174.303 288.376 174.401C288.938 174.489 289.246 174.55 289.242 174.575Z" fill="white"/>
</g>
<g opacity="0.2">
<path d="M296.242 134.252C295.303 136.581 296.712 139.09 298.079 141.246C299.03 142.746 299.999 144.267 301.37 145.484C302.741 146.701 304.591 147.598 306.53 147.541C309.078 147.467 311.36 145.797 313.904 145.927C315.635 146.016 317.156 146.923 318.592 147.785C321.083 149.277 323.637 150.735 326.459 151.651C329.281 152.567 332.424 152.912 335.302 152.144C338.179 151.375 340.723 149.362 341.421 146.768" fill="black"/>
</g>
<path d="M296.455 133.611C296.586 130.9 296.751 128.447 296.751 128.447C296.751 128.447 303.579 127.683 303.874 121.5C304.168 115.316 303.475 101.078 303.475 101.078L290.908 95.7236L277.387 105.388L279.507 133.786C279.813 137.877 283.752 141 288.369 140.81C292.758 140.63 296.267 137.506 296.455 133.611Z" fill="#FFBE9D"/>
<path d="M302.292 112.258C302.3 112.695 301.918 113.054 301.439 113.062C300.96 113.069 300.563 112.722 300.555 112.285C300.546 111.848 300.928 111.488 301.407 111.481C301.888 111.474 302.283 111.822 302.292 112.258Z" fill="#263238"/>
<path d="M303.136 110.607C303.026 110.711 302.375 110.225 301.439 110.194C300.505 110.15 299.81 110.583 299.71 110.47C299.661 110.42 299.774 110.23 300.077 110.033C300.375 109.838 300.88 109.655 301.464 109.679C302.046 109.703 302.533 109.924 302.811 110.143C303.095 110.363 303.19 110.561 303.136 110.607Z" fill="#263238"/>
<path d="M291.932 112.258C291.94 112.695 291.558 113.054 291.078 113.062C290.599 113.069 290.203 112.722 290.195 112.285C290.187 111.848 290.569 111.488 291.048 111.481C291.527 111.474 291.923 111.822 291.932 112.258Z" fill="#263238"/>
<path d="M292.777 110.767C292.667 110.87 292.015 110.384 291.08 110.353C290.146 110.309 289.451 110.742 289.351 110.63C289.302 110.58 289.414 110.389 289.718 110.193C290.016 109.997 290.522 109.815 291.104 109.838C291.687 109.862 292.174 110.084 292.452 110.302C292.735 110.522 292.83 110.72 292.777 110.767Z" fill="#263238"/>
<path d="M296.288 117.903C296.285 117.852 296.868 117.778 297.813 117.697C298.052 117.682 298.279 117.645 298.322 117.491C298.381 117.329 298.285 117.081 298.174 116.812C297.959 116.255 297.735 115.671 297.498 115.058C296.561 112.562 295.886 110.513 295.991 110.48C296.097 110.447 296.942 112.443 297.88 114.94C298.106 115.555 298.322 116.142 298.527 116.703C298.613 116.964 298.763 117.262 298.635 117.599C298.568 117.766 298.39 117.883 298.237 117.916C298.083 117.955 297.948 117.953 297.83 117.955C296.879 117.971 296.29 117.954 296.288 117.903Z" fill="#263238"/>
<path d="M293.218 118.756C292.261 118.199 295.858 120.133 297.765 120.103C297.765 120.103 296.617 121.661 294.682 120.951C292.672 120.215 293.218 118.756 293.218 118.756Z" fill="white"/>
<path d="M296.748 128.446C296.748 128.446 292.181 128.563 287.707 125.82C287.707 125.82 289.832 130.324 296.63 129.964L296.748 128.446Z" fill="#EB996E"/>
<path d="M270.05 111.481C270.027 116.833 268.447 130.983 279.442 132.947L279.043 113.457C279.043 113.457 289.689 109.003 291.487 99.7264L291.552 99.779C292.234 101.179 293.448 104.186 292.71 106.635L302.68 108.815L303.827 109.747C303.827 109.747 307.377 102.845 300.528 96.584C293.678 90.3228 287.826 94.8603 284.154 94.4693C281.712 94.2091 273.243 94.2596 269.793 107.199L270.05 111.481Z" fill="#263238"/>
<path d="M279.317 113.675C278.388 113.166 277.119 113.585 276.381 114.299C275.221 115.423 275.019 117.239 275.909 118.542C276.8 119.845 278.708 120.526 280.368 120.132" fill="#FFBE9D"/>
<path d="M279.103 118.28C279.101 118.324 278.791 118.371 278.304 118.255C277.841 118.146 277.121 117.816 276.846 117.107C276.711 116.764 276.736 116.387 276.887 116.098C277.034 115.807 277.268 115.61 277.481 115.484C277.92 115.233 278.253 115.251 278.258 115.291C278.275 115.346 277.985 115.423 277.657 115.686C277.325 115.935 277.006 116.443 277.231 116.992C277.437 117.539 277.997 117.855 278.402 118.015C278.816 118.18 279.109 118.225 279.103 118.28Z" fill="#EB996E"/>
<path d="M278.192 119.499C277.686 119.605 277.427 120.222 277.732 120.595C278.037 120.968 278.78 120.942 279.05 120.548C279.32 120.155 279.006 119.557 278.493 119.488" fill="#0FCC7C"/>
<path d="M298.393 164.693V154.529C298.393 154.529 281.382 157.661 281.07 164.572L298.393 164.693Z" fill="#FFBE9D"/>
<path d="M296.625 132.541C296.904 135.637 298.522 138.623 301.073 140.749C303.624 142.876 307.084 144.123 310.583 144.177C313.095 144.216 315.742 143.687 318.034 144.597C320.028 145.388 321.311 147.102 322.882 148.45C326.567 151.611 332.285 152.758 337.144 151.311C339.204 150.698 342.478 149.384 342.861 147.487C343.153 146.042 341.161 144.605 339.987 143.57C338.814 142.535 337.297 141.87 335.798 141.246C323.681 136.197 310.672 132.523 297.304 131.896" fill="#263238"/>
</svg>
