<svg width="24" height="21" viewBox="0 0 24 21" fill="none" xmlns="http://www.w3.org/2000/svg">
<path d="M8.8 1.3C8.8 1.08783 8.88428 0.884344 9.03431 0.734315C9.18434 0.584285 9.38783 0.5 9.6 0.5H14.4C14.6122 0.5 14.8157 0.584285 14.9657 0.734315C15.1157 0.884344 15.2 1.08783 15.2 1.3C15.2 1.51217 15.1157 1.71566 14.9657 1.86569C14.8157 2.01571 14.6122 2.1 14.4 2.1H9.6C9.38783 2.1 9.18434 2.01571 9.03431 1.86569C8.88428 1.71566 8.8 1.51217 8.8 1.3ZM24 10.1C24 10.3122 23.9157 10.5157 23.7657 10.6657C23.6157 10.8157 23.4122 10.9 23.2 10.9H22.4V18.9C22.4 19.3243 22.2314 19.7313 21.9314 20.0314C21.6313 20.3314 21.2243 20.5 20.8 20.5H18.4C17.9757 20.5 17.5687 20.3314 17.2686 20.0314C16.9686 19.7313 16.8 19.3243 16.8 18.9V18.1H7.2V18.9C7.2 19.3243 7.03143 19.7313 6.73137 20.0314C6.43131 20.3314 6.02435 20.5 5.6 20.5H3.2C2.77565 20.5 2.36869 20.3314 2.06863 20.0314C1.76857 19.7313 1.6 19.3243 1.6 18.9V10.9H0.8C0.587827 10.9 0.384344 10.8157 0.234315 10.6657C0.0842854 10.5157 0 10.3122 0 10.1C0 9.88783 0.0842854 9.68434 0.234315 9.53432C0.384344 9.38429 0.587827 9.3 0.8 9.3H1.936L4.675 4.506C4.81495 4.26116 5.01713 4.05766 5.26105 3.91611C5.50498 3.77457 5.78198 3.70002 6.064 3.7H17.936C18.218 3.70002 18.495 3.77457 18.7389 3.91611C18.9829 4.05766 19.185 4.26116 19.325 4.506L22.064 9.3H23.2C23.4122 9.3 23.6157 9.38429 23.7657 9.53432C23.9157 9.68434 24 9.88783 24 10.1ZM8 13.3C8 13.0878 7.91571 12.8843 7.76568 12.7343C7.61566 12.5843 7.41217 12.5 7.2 12.5H4.8C4.58783 12.5 4.38434 12.5843 4.23431 12.7343C4.08428 12.8843 4 13.0878 4 13.3C4 13.5122 4.08428 13.7157 4.23431 13.8657C4.38434 14.0157 4.58783 14.1 4.8 14.1H7.2C7.41217 14.1 7.61566 14.0157 7.76568 13.8657C7.91571 13.7157 8 13.5122 8 13.3ZM20 13.3C20 13.0878 19.9157 12.8843 19.7657 12.7343C19.6157 12.5843 19.4122 12.5 19.2 12.5H16.8C16.5878 12.5 16.3843 12.5843 16.2343 12.7343C16.0843 12.8843 16 13.0878 16 13.3C16 13.5122 16.0843 13.7157 16.2343 13.8657C16.3843 14.0157 16.5878 14.1 16.8 14.1H19.2C19.4122 14.1 19.6157 14.0157 19.7657 13.8657C19.9157 13.7157 20 13.5122 20 13.3ZM20.221 9.3L17.936 5.3H6.064L3.779 9.3H20.221Z" fill="#0FCC7C"/>
</svg>
