<svg width="167" height="701" viewBox="0 0 167 701" fill="none" xmlns="http://www.w3.org/2000/svg">
<path d="M105.946 31.2578C219.159 150.192 88.6361 289.913 44.3866 352.937C-28.2151 456.344 17.9991 640.203 93.8746 685.258" stroke="#0FCC7C" stroke-width="3" stroke-dasharray="20 20"/>
<path d="M139.581 199.582L134.007 180.23L154.084 185.609L139.581 199.582Z" fill="#051A41"/>
<path d="M17.8872 560.034L3.63305 545.808L23.8012 540.783L17.8872 560.034Z" fill="#051A41"/>
<ellipse cx="95.3845" cy="18.5662" rx="17.7712" ry="17.7694" fill="#051A41"/>
<path d="M93.1312 14.9421V12.3981H97.5632V24.0781H94.7152V14.9421H93.1312Z" fill="white"/>
<ellipse cx="33.0447" cy="371.652" rx="17.7712" ry="17.7694" fill="#051A41"/>
<path d="M29.9053 374.62C30.2679 374.332 30.4333 374.199 30.4013 374.22C31.4466 373.356 32.2679 372.647 32.8653 372.092C33.4733 371.538 33.9853 370.956 34.4013 370.348C34.8173 369.74 35.0253 369.148 35.0253 368.572C35.0253 368.135 34.9239 367.794 34.7213 367.548C34.5186 367.303 34.2146 367.18 33.8093 367.18C33.4039 367.18 33.0839 367.335 32.8493 367.644C32.6253 367.943 32.5133 368.37 32.5133 368.924H29.8733C29.8946 368.018 30.0866 367.26 30.4493 366.652C30.8226 366.044 31.3079 365.596 31.9053 365.308C32.5133 365.02 33.1853 364.876 33.9213 364.876C35.1906 364.876 36.1453 365.202 36.7853 365.852C37.4359 366.503 37.7613 367.351 37.7613 368.396C37.7613 369.538 37.3719 370.599 36.5933 371.58C35.8146 372.551 34.8226 373.5 33.6173 374.428H37.9373V376.652H29.9053V374.62Z" fill="white"/>
<ellipse cx="95.3845" cy="682.488" rx="17.7712" ry="17.7694" fill="#051A41"/>
<path d="M90.3824 679.616C90.4251 678.475 90.7984 677.595 91.5024 676.976C92.2064 676.357 93.1611 676.048 94.3664 676.048C95.1664 676.048 95.8491 676.187 96.4144 676.464C96.9904 676.741 97.4224 677.12 97.7104 677.6C98.0091 678.08 98.1584 678.619 98.1584 679.216C98.1584 679.92 97.9824 680.496 97.6304 680.944C97.2784 681.381 96.8677 681.68 96.3984 681.84V681.904C97.0064 682.107 97.4864 682.443 97.8384 682.912C98.1904 683.381 98.3664 683.984 98.3664 684.72C98.3664 685.381 98.2117 685.968 97.9024 686.48C97.6037 686.981 97.1611 687.376 96.5744 687.664C95.9984 687.952 95.3104 688.096 94.5104 688.096C93.2304 688.096 92.2064 687.781 91.4384 687.152C90.6811 686.523 90.2811 685.573 90.2384 684.304H92.8944C92.9051 684.773 93.0384 685.147 93.2944 685.424C93.5504 685.691 93.9237 685.824 94.4144 685.824C94.8304 685.824 95.1504 685.707 95.3744 685.472C95.6091 685.227 95.7264 684.907 95.7264 684.512C95.7264 684 95.5611 683.632 95.2304 683.408C94.9104 683.173 94.3931 683.056 93.6784 683.056H93.1664V680.832H93.6784C94.2224 680.832 94.6597 680.741 94.9904 680.56C95.3317 680.368 95.5024 680.032 95.5024 679.552C95.5024 679.168 95.3957 678.869 95.1824 678.656C94.9691 678.443 94.6757 678.336 94.3024 678.336C93.8971 678.336 93.5931 678.459 93.3904 678.704C93.1984 678.949 93.0864 679.253 93.0544 679.616H90.3824Z" fill="white"/>
</svg>
